<?xml version="1.0" encoding="UTF-8" standalone="no"?>
<!-- Created with Inkscape (http://www.inkscape.org/) -->

<svg
   width="210mm"
   height="297mm"
   viewBox="0 0 210 297"
   version="1.1"
   id="svg1"
   sodipodi:docname="galois.svg"
   inkscape:version="1.3.2 (091e20ef0f, 2023-11-25, custom)"
   xmlns:inkscape="http://www.inkscape.org/namespaces/inkscape"
   xmlns:sodipodi="http://sodipodi.sourceforge.net/DTD/sodipodi-0.dtd"
   xmlns="http://www.w3.org/2000/svg"
   xmlns:svg="http://www.w3.org/2000/svg">
  <sodipodi:namedview
     id="namedview1"
     pagecolor="#505050"
     bordercolor="#eeeeee"
     borderopacity="1"
     inkscape:showpageshadow="0"
     inkscape:pageopacity="0"
     inkscape:pagecheckerboard="0"
     inkscape:deskcolor="#505050"
     inkscape:document-units="mm"
     inkscape:zoom="1.6819304"
     inkscape:cx="228.90364"
     inkscape:cy="192.93307"
     inkscape:window-width="1916"
     inkscape:window-height="1176"
     inkscape:window-x="1920"
     inkscape:window-y="20"
     inkscape:window-maximized="1"
     inkscape:current-layer="layer1" />
  <defs
     id="defs1">
    <marker
       style="overflow:visible"
       id="marker190"
       refX="0"
       refY="0"
       orient="auto-start-reverse"
       inkscape:stockid="Triangle arrow"
       markerWidth="1"
       markerHeight="1"
       viewBox="0 0 1 1"
       inkscape:isstock="true"
       inkscape:collect="always"
       preserveAspectRatio="xMidYMid">
      <path
         transform="scale(0.5)"
         style="fill:context-stroke;fill-rule:evenodd;stroke:context-stroke;stroke-width:1pt"
         d="M 5.77,0 -2.88,5 V -5 Z"
         id="path190" />
    </marker>
    <marker
       style="overflow:visible"
       id="marker188"
       refX="0"
       refY="0"
       orient="auto-start-reverse"
       inkscape:stockid="Triangle arrow"
       markerWidth="1"
       markerHeight="1"
       viewBox="0 0 1 1"
       inkscape:isstock="true"
       inkscape:collect="always"
       preserveAspectRatio="xMidYMid">
      <path
         transform="scale(0.5)"
         style="fill:context-stroke;fill-rule:evenodd;stroke:context-stroke;stroke-width:1pt"
         d="M 5.77,0 -2.88,5 V -5 Z"
         id="path188" />
    </marker>
    <marker
       style="overflow:visible"
       id="marker186"
       refX="0"
       refY="0"
       orient="auto-start-reverse"
       inkscape:stockid="Triangle arrow"
       markerWidth="1"
       markerHeight="1"
       viewBox="0 0 1 1"
       inkscape:isstock="true"
       inkscape:collect="always"
       preserveAspectRatio="xMidYMid">
      <path
         transform="scale(0.5)"
         style="fill:context-stroke;fill-rule:evenodd;stroke:context-stroke;stroke-width:1pt"
         d="M 5.77,0 -2.88,5 V -5 Z"
         id="path186" />
    </marker>
    <marker
       style="overflow:visible"
       id="marker184"
       refX="0"
       refY="0"
       orient="auto-start-reverse"
       inkscape:stockid="Triangle arrow"
       markerWidth="1"
       markerHeight="1"
       viewBox="0 0 1 1"
       inkscape:isstock="true"
       inkscape:collect="always"
       preserveAspectRatio="xMidYMid">
      <path
         transform="scale(0.5)"
         style="fill:context-stroke;fill-rule:evenodd;stroke:context-stroke;stroke-width:1pt"
         d="M 5.77,0 -2.88,5 V -5 Z"
         id="path184" />
    </marker>
    <marker
       style="overflow:visible"
       id="marker182"
       refX="0"
       refY="0"
       orient="auto-start-reverse"
       inkscape:stockid="Triangle arrow"
       markerWidth="1"
       markerHeight="1"
       viewBox="0 0 1 1"
       inkscape:isstock="true"
       inkscape:collect="always"
       preserveAspectRatio="xMidYMid">
      <path
         transform="scale(0.5)"
         style="fill:context-stroke;fill-rule:evenodd;stroke:context-stroke;stroke-width:1pt"
         d="M 5.77,0 -2.88,5 V -5 Z"
         id="path182" />
    </marker>
    <marker
       style="overflow:visible"
       id="marker180"
       refX="0"
       refY="0"
       orient="auto-start-reverse"
       inkscape:stockid="Triangle arrow"
       markerWidth="1"
       markerHeight="1"
       viewBox="0 0 1 1"
       inkscape:isstock="true"
       inkscape:collect="always"
       preserveAspectRatio="xMidYMid">
      <path
         transform="scale(0.5)"
         style="fill:context-stroke;fill-rule:evenodd;stroke:context-stroke;stroke-width:1pt"
         d="M 5.77,0 -2.88,5 V -5 Z"
         id="path180" />
    </marker>
    <marker
       style="overflow:visible"
       id="marker123"
       refX="0"
       refY="0"
       orient="auto-start-reverse"
       inkscape:stockid="Triangle arrow"
       markerWidth="1"
       markerHeight="1"
       viewBox="0 0 1 1"
       inkscape:isstock="true"
       inkscape:collect="always"
       preserveAspectRatio="xMidYMid">
      <path
         transform="scale(0.5)"
         style="fill:context-stroke;fill-rule:evenodd;stroke:context-stroke;stroke-width:1pt"
         d="M 5.77,0 -2.88,5 V -5 Z"
         id="path123" />
    </marker>
    <marker
       style="overflow:visible"
       id="marker121"
       refX="0"
       refY="0"
       orient="auto-start-reverse"
       inkscape:stockid="Triangle arrow"
       markerWidth="1"
       markerHeight="1"
       viewBox="0 0 1 1"
       inkscape:isstock="true"
       inkscape:collect="always"
       preserveAspectRatio="xMidYMid">
      <path
         transform="scale(0.5)"
         style="fill:context-stroke;fill-rule:evenodd;stroke:context-stroke;stroke-width:1pt"
         d="M 5.77,0 -2.88,5 V -5 Z"
         id="path121" />
    </marker>
    <marker
       style="overflow:visible"
       id="marker119"
       refX="0"
       refY="0"
       orient="auto-start-reverse"
       inkscape:stockid="Triangle arrow"
       markerWidth="1"
       markerHeight="1"
       viewBox="0 0 1 1"
       inkscape:isstock="true"
       inkscape:collect="always"
       preserveAspectRatio="xMidYMid">
      <path
         transform="scale(0.5)"
         style="fill:context-stroke;fill-rule:evenodd;stroke:context-stroke;stroke-width:1pt"
         d="M 5.77,0 -2.88,5 V -5 Z"
         id="path119" />
    </marker>
    <marker
       style="overflow:visible"
       id="marker117"
       refX="0"
       refY="0"
       orient="auto-start-reverse"
       inkscape:stockid="Triangle arrow"
       markerWidth="1"
       markerHeight="1"
       viewBox="0 0 1 1"
       inkscape:isstock="true"
       inkscape:collect="always"
       preserveAspectRatio="xMidYMid">
      <path
         transform="scale(0.5)"
         style="fill:context-stroke;fill-rule:evenodd;stroke:context-stroke;stroke-width:1pt"
         d="M 5.77,0 -2.88,5 V -5 Z"
         id="path117" />
    </marker>
    <marker
       style="overflow:visible"
       id="marker115"
       refX="0"
       refY="0"
       orient="auto-start-reverse"
       inkscape:stockid="Triangle arrow"
       markerWidth="1"
       markerHeight="1"
       viewBox="0 0 1 1"
       inkscape:isstock="true"
       inkscape:collect="always"
       preserveAspectRatio="xMidYMid">
      <path
         transform="scale(0.5)"
         style="fill:context-stroke;fill-rule:evenodd;stroke:context-stroke;stroke-width:1pt"
         d="M 5.77,0 -2.88,5 V -5 Z"
         id="path115" />
    </marker>
    <marker
       style="overflow:visible"
       id="Triangle"
       refX="0"
       refY="0"
       orient="auto-start-reverse"
       inkscape:stockid="Triangle arrow"
       markerWidth="1"
       markerHeight="1"
       viewBox="0 0 1 1"
       inkscape:isstock="true"
       inkscape:collect="always"
       preserveAspectRatio="xMidYMid">
      <path
         transform="scale(0.5)"
         style="fill:context-stroke;fill-rule:evenodd;stroke:context-stroke;stroke-width:1pt"
         d="M 5.77,0 -2.88,5 V -5 Z"
         id="path135" />
    </marker>
  </defs>
  <g
     inkscape:label="Layer 1"
     inkscape:groupmode="layer"
     id="layer1">
    <g
       inkscape:label=""
       transform="translate(31.655081,7.1841913)"
       id="g1">
      <g
         fill="#000000"
         fill-opacity="1"
         id="g4"
         transform="matrix(0.352778,0,0,0.352778,-0.956645,-0.698721)">
        <g
           id="use3"
           transform="translate(1.993,9.4650002)">
          <path
             d="m 2.828125,-6.15625 c 0,-0.390625 0.25,-1.03125 1.34375,-1.09375 C 4.21875,-7.265625 4.25,-7.3125 4.25,-7.359375 c 0,-0.125 -0.078125,-0.125 -0.1875,-0.125 -0.984375,0 -1.90625,0.515625 -1.90625,1.25 v 2.28125 c 0,0.390625 0,0.703125 -0.40625,1.03125 -0.34375,0.296875 -0.71875,0.3125 -0.9375,0.3125 C 0.75,-2.59375 0.71875,-2.546875 0.71875,-2.5 c 0,0.109375 0.0625,0.109375 0.15625,0.125 0.65625,0.03125 1.140625,0.390625 1.25,0.875 0.03125,0.109375 0.03125,0.140625 0.03125,0.5 v 1.96875 c 0,0.421875 0,0.734375 0.46875,1.109375 C 3.015625,2.375 3.671875,2.5 4.0625,2.5 4.171875,2.5 4.25,2.5 4.25,2.375 4.25,2.28125 4.203125,2.28125 4.09375,2.265625 3.46875,2.234375 2.984375,1.90625 2.84375,1.40625 2.828125,1.3125 2.828125,1.296875 2.828125,0.9375 v -2.09375 c 0,-0.453125 -0.09375,-0.625 -0.40625,-0.953125 C 2.21875,-2.3125 1.921875,-2.40625 1.640625,-2.5 c 0.828125,-0.21875 1.1875,-0.6875 1.1875,-1.265625 z m 0,0"
             id="path6" />
        </g>
      </g>
      <g
         fill="#000000"
         fill-opacity="1"
         id="g5"
         transform="matrix(0.352778,0,0,0.352778,-0.956645,-0.698721)">
        <g
           id="use4"
           transform="translate(6.974,9.4650002)">
          <path
             d="m 1.859375,-2.296875 c 0.296875,0 1.03125,-0.03125 1.53125,-0.234375 0.703125,-0.296875 0.75,-0.890625 0.75,-1.03125 0,-0.4375 -0.375,-0.84375 -1.0625,-0.84375 -1.109375,0 -2.625,0.96875 -2.625,2.71875 0,1.015625 0.59375,1.796875 1.578125,1.796875 1.421875,0 2.25,-1.0625 2.25,-1.171875 0,-0.0625 -0.046875,-0.140625 -0.109375,-0.140625 -0.0625,0 -0.078125,0.03125 -0.140625,0.109375 -0.78125,0.984375 -1.875,0.984375 -1.984375,0.984375 -0.78125,0 -0.875,-0.84375 -0.875,-1.15625 0,-0.125 0.015625,-0.421875 0.15625,-1.03125 z m -0.46875,-0.21875 C 1.78125,-4.03125 2.8125,-4.1875 3.078125,-4.1875 c 0.453125,0 0.734375,0.296875 0.734375,0.625 0,1.046875 -1.59375,1.046875 -2.015625,1.046875 z m 0,0"
             id="path7" />
        </g>
      </g>
      <g
         fill="#000000"
         fill-opacity="1"
         id="g6"
         transform="matrix(0.352778,0,0,0.352778,-0.956645,-0.698721)">
        <g
           id="use5"
           transform="translate(11.613,9.4650002)">
          <path
             d="m 2.15625,1.171875 c 0,0.390625 -0.265625,1.03125 -1.34375,1.09375 C 0.75,2.28125 0.71875,2.328125 0.71875,2.375 0.71875,2.5 0.828125,2.5 0.921875,2.5 1.890625,2.5 2.8125,2 2.828125,1.25 v -2.28125 c 0,-0.390625 0,-0.703125 0.390625,-1.03125 C 3.5625,-2.359375 3.953125,-2.375 4.171875,-2.375 4.21875,-2.390625 4.25,-2.4375 4.25,-2.5 4.25,-2.59375 4.203125,-2.59375 4.09375,-2.609375 3.4375,-2.640625 2.953125,-3 2.84375,-3.484375 2.828125,-3.59375 2.828125,-3.625 2.828125,-3.984375 v -1.96875 c 0,-0.421875 0,-0.734375 -0.484375,-1.109375 C 1.9375,-7.375 1.25,-7.484375 0.921875,-7.484375 c -0.09375,0 -0.203125,0 -0.203125,0.125 0,0.09375 0.0625,0.09375 0.15625,0.109375 0.625,0.03125 1.125,0.359375 1.25,0.859375 0.03125,0.09375 0.03125,0.109375 0.03125,0.46875 v 2.09375 c 0,0.453125 0.078125,0.625 0.390625,0.953125 0.21875,0.203125 0.5,0.296875 0.78125,0.375 -0.8125,0.234375 -1.171875,0.703125 -1.171875,1.28125 z m 0,0"
             id="path8" />
        </g>
      </g>
    </g>
    <g
       id="g112">
      <g
         inkscape:label=""
         transform="translate(50.919539,26.447901)"
         id="g27">
        <g
           fill="#000000"
           fill-opacity="1"
           id="g18"
           transform="matrix(0.352778,0,0,0.352778,-0.962157,-0.840581)">
          <g
             id="g17"
             transform="translate(1.993,2.789)">
            <path
               d="m 3.875,8.515625 -1.75,-3.875 C 2.046875,4.484375 2,4.484375 1.96875,4.484375 c 0,0 -0.0625,0 -0.171875,0.078125 l -0.9375,0.71875 c -0.125,0.109375 -0.125,0.125 -0.125,0.15625 0,0.0625 0.015625,0.109375 0.09375,0.109375 0.0625,0 0.234375,-0.140625 0.34375,-0.21875 C 1.21875,5.28125 1.375,5.171875 1.484375,5.09375 l 1.96875,4.3125 C 3.515625,9.5625 3.5625,9.5625 3.65625,9.5625 c 0.15625,0 0.1875,-0.046875 0.25,-0.1875 L 8.4375,0 C 8.5,-0.140625 8.5,-0.171875 8.5,-0.203125 8.5,-0.296875 8.421875,-0.40625 8.296875,-0.40625 c -0.078125,0 -0.140625,0.0625 -0.21875,0.21875 z m 0,0"
               id="path16" />
          </g>
        </g>
        <path
           fill="none"
           stroke-width="0.398"
           stroke-linecap="butt"
           stroke-linejoin="miter"
           stroke="#000000"
           stroke-opacity="1"
           stroke-miterlimit="10"
           d="m 7.5695,0.20709372 h 4.980469"
           id="path18"
           transform="scale(0.352778)" />
        <g
           fill="#000000"
           fill-opacity="1"
           id="g20"
           transform="matrix(0.352778,0,0,0.352778,-0.962157,-0.840581)">
          <g
             id="g19"
             transform="translate(10.295,11.031)">
            <path
               d="m 1.265625,-0.765625 1.0625,-1.03125 c 1.546875,-1.375 2.140625,-1.90625 2.140625,-2.90625 0,-1.140625 -0.890625,-1.9375 -2.109375,-1.9375 -1.125,0 -1.859375,0.921875 -1.859375,1.8125 0,0.546875 0.5,0.546875 0.53125,0.546875 0.171875,0 0.515625,-0.109375 0.515625,-0.53125 0,-0.25 -0.1875,-0.515625 -0.53125,-0.515625 -0.078125,0 -0.09375,0 -0.125,0.015625 0.21875,-0.65625 0.765625,-1.015625 1.34375,-1.015625 0.90625,0 1.328125,0.8125 1.328125,1.625 C 3.5625,-3.90625 3.078125,-3.125 2.515625,-2.5 l -1.90625,2.125 C 0.5,-0.265625 0.5,-0.234375 0.5,0 H 4.203125 L 4.46875,-1.734375 H 4.234375 C 4.171875,-1.4375 4.109375,-1 4,-0.84375 3.9375,-0.765625 3.28125,-0.765625 3.0625,-0.765625 Z m 0,0"
               id="path19" />
          </g>
        </g>
        <g
           fill="#000000"
           fill-opacity="1"
           id="g23"
           transform="matrix(0.352778,0,0,0.352778,-0.962157,-0.840581)">
          <g
             id="g21"
             transform="translate(18.042999,11.031)">
            <path
               d="M 0.953125,-2.296875 C 1,-2.296875 1.21875,-2.296875 1.21875,-2.5 1.21875,-2.6875 1,-2.6875 0.953125,-2.6875 V -4 c 0,-0.15625 0,-0.34375 -0.203125,-0.34375 -0.203125,0 -0.203125,0.1875 -0.203125,0.34375 v 3.015625 c 0,0.15625 0,0.34375 0.203125,0.34375 0.203125,0 0.203125,-0.1875 0.203125,-0.34375 z m 0,0"
               id="path20" />
          </g>
          <g
             id="g22"
             transform="translate(18.042999,11.031)">
            <path
               d="M 8.3125,-2.296875 C 7.765625,-1.875 7.5,-1.46875 7.421875,-1.328125 c -0.453125,0.6875 -0.53125,1.3125 -0.53125,1.3125 0,0.125 0.125,0.125 0.203125,0.125 C 7.25,0.109375 7.265625,0.09375 7.3125,-0.09375 7.53125,-1.0625 8.125,-1.90625 9.25,-2.359375 9.375,-2.40625 9.40625,-2.421875 9.40625,-2.5 c 0,-0.0625 -0.0625,-0.09375 -0.078125,-0.109375 C 8.875,-2.765625 7.671875,-3.265625 7.296875,-4.9375 7.265625,-5.0625 7.25,-5.09375 7.09375,-5.09375 c -0.078125,0 -0.203125,0 -0.203125,0.125 0,0.015625 0.09375,0.640625 0.5,1.3125 0.203125,0.296875 0.5,0.640625 0.921875,0.96875 H 0.90625 c -0.171875,0 -0.359375,0 -0.359375,0.1875 0,0.203125 0.1875,0.203125 0.359375,0.203125 z m 0,0"
               id="path21" />
          </g>
        </g>
        <g
           fill="#000000"
           fill-opacity="1"
           id="g25"
           transform="matrix(0.352778,0,0,0.352778,-0.962157,-0.840581)">
          <g
             id="g24"
             transform="translate(30.775204,11.031)">
            <path
               d="m 6.5625,-2.296875 c 0.171875,0 0.359375,0 0.359375,-0.203125 0,-0.1875 -0.1875,-0.1875 -0.359375,-0.1875 H 1.171875 c -0.171875,0 -0.34375,0 -0.34375,0.1875 0,0.203125 0.171875,0.203125 0.34375,0.203125 z m 0,0"
               id="path23" />
          </g>
        </g>
        <g
           fill="#000000"
           fill-opacity="1"
           id="g26"
           transform="matrix(0.352778,0,0,0.352778,-0.962157,-0.840581)">
          <g
             id="use10"
             transform="translate(38.521999,2.789)">
            <path
               d="m 3.875,8.515625 -1.75,-3.875 C 2.046875,4.484375 2,4.484375 1.96875,4.484375 c 0,0 -0.0625,0 -0.171875,0.078125 l -0.9375,0.71875 c -0.125,0.109375 -0.125,0.125 -0.125,0.15625 0,0.0625 0.015625,0.109375 0.09375,0.109375 0.0625,0 0.234375,-0.140625 0.34375,-0.21875 C 1.21875,5.28125 1.375,5.171875 1.484375,5.09375 l 1.96875,4.3125 C 3.515625,9.5625 3.5625,9.5625 3.65625,9.5625 c 0.15625,0 0.1875,-0.046875 0.25,-0.1875 L 8.4375,0 C 8.5,-0.140625 8.5,-0.171875 8.5,-0.203125 8.5,-0.296875 8.421875,-0.40625 8.296875,-0.40625 c -0.078125,0 -0.140625,0.0625 -0.21875,0.21875 z m 0,0"
               id="path25" />
          </g>
        </g>
        <path
           fill="none"
           stroke-width="0.398"
           stroke-linecap="butt"
           stroke-linejoin="miter"
           stroke="#000000"
           stroke-opacity="1"
           stroke-miterlimit="10"
           d="m 44.096844,0.20709372 h 4.980469"
           id="path26"
           transform="scale(0.352778)" />
        <g
           fill="#000000"
           fill-opacity="1"
           id="g11"
           transform="matrix(0.352778,0,0,0.352778,-0.962157,-0.840581)">
          <g
             id="use11"
             transform="translate(46.824001,11.031)">
            <path
               d="m 1.265625,-0.765625 1.0625,-1.03125 c 1.546875,-1.375 2.140625,-1.90625 2.140625,-2.90625 0,-1.140625 -0.890625,-1.9375 -2.109375,-1.9375 -1.125,0 -1.859375,0.921875 -1.859375,1.8125 0,0.546875 0.5,0.546875 0.53125,0.546875 0.171875,0 0.515625,-0.109375 0.515625,-0.53125 0,-0.25 -0.1875,-0.515625 -0.53125,-0.515625 -0.078125,0 -0.09375,0 -0.125,0.015625 0.21875,-0.65625 0.765625,-1.015625 1.34375,-1.015625 0.90625,0 1.328125,0.8125 1.328125,1.625 C 3.5625,-3.90625 3.078125,-3.125 2.515625,-2.5 l -1.90625,2.125 C 0.5,-0.265625 0.5,-0.234375 0.5,0 H 4.203125 L 4.46875,-1.734375 H 4.234375 C 4.171875,-1.4375 4.109375,-1 4,-0.84375 3.9375,-0.765625 3.28125,-0.765625 3.0625,-0.765625 Z m 0,0"
               id="path17" />
          </g>
        </g>
      </g>
      <g
         inkscape:label=""
         transform="translate(51.268152,30.879455)"
         id="g55">
        <g
           fill="#000000"
           fill-opacity="1"
           id="g43"
           transform="matrix(0.352778,0,0,0.352778,-0.962157,-0.840581)">
          <g
             id="g42"
             transform="translate(1.993,2.789)">
            <path
               d="m 3.875,8.515625 -1.75,-3.875 C 2.046875,4.484375 2,4.484375 1.96875,4.484375 c 0,0 -0.0625,0 -0.171875,0.078125 l -0.9375,0.71875 c -0.125,0.109375 -0.125,0.125 -0.125,0.15625 0,0.0625 0.015625,0.109375 0.09375,0.109375 0.0625,0 0.234375,-0.140625 0.34375,-0.21875 C 1.21875,5.28125 1.375,5.171875 1.484375,5.09375 l 1.96875,4.3125 C 3.515625,9.5625 3.5625,9.5625 3.65625,9.5625 c 0.15625,0 0.1875,-0.046875 0.25,-0.1875 L 8.4375,0 C 8.5,-0.140625 8.5,-0.171875 8.5,-0.203125 8.5,-0.296875 8.421875,-0.40625 8.296875,-0.40625 c -0.078125,0 -0.140625,0.0625 -0.21875,0.21875 z m 0,0"
               id="path41" />
          </g>
        </g>
        <path
           fill="none"
           stroke-width="0.398"
           stroke-linecap="butt"
           stroke-linejoin="miter"
           stroke="#000000"
           stroke-opacity="1"
           stroke-miterlimit="10"
           d="m 7.5695,0.20709372 h 4.980469"
           id="path43"
           transform="scale(0.352778)" />
        <g
           fill="#000000"
           fill-opacity="1"
           id="g45"
           transform="matrix(0.352778,0,0,0.352778,-0.962157,-0.840581)">
          <g
             id="g44"
             transform="translate(10.295,11.031)">
            <path
               d="m 2.890625,-3.515625 c 0.8125,-0.265625 1.390625,-0.953125 1.390625,-1.75 0,-0.8125 -0.875,-1.375 -1.828125,-1.375 -1,0 -1.765625,0.59375 -1.765625,1.359375 0,0.328125 0.21875,0.515625 0.515625,0.515625 0.296875,0 0.5,-0.21875 0.5,-0.515625 0,-0.484375 -0.46875,-0.484375 -0.609375,-0.484375 0.296875,-0.5 0.953125,-0.625 1.3125,-0.625 0.421875,0 0.96875,0.21875 0.96875,1.109375 0,0.125 -0.03125,0.703125 -0.28125,1.140625 C 2.796875,-3.65625 2.453125,-3.625 2.203125,-3.625 2.125,-3.609375 1.890625,-3.59375 1.8125,-3.59375 c -0.078125,0.015625 -0.140625,0.03125 -0.140625,0.125 0,0.109375 0.0625,0.109375 0.234375,0.109375 h 0.4375 c 0.8125,0 1.1875,0.671875 1.1875,1.65625 0,1.359375 -0.6875,1.640625 -1.125,1.640625 -0.4375,0 -1.1875,-0.171875 -1.53125,-0.75 0.34375,0.046875 0.65625,-0.171875 0.65625,-0.546875 0,-0.359375 -0.265625,-0.5625 -0.546875,-0.5625 -0.25,0 -0.5625,0.140625 -0.5625,0.578125 0,0.90625 0.921875,1.5625 2.015625,1.5625 1.21875,0 2.125,-0.90625 2.125,-1.921875 0,-0.8125 -0.640625,-1.59375 -1.671875,-1.8125 z m 0,0"
               id="path44" />
          </g>
        </g>
        <g
           fill="#000000"
           fill-opacity="1"
           id="g48"
           transform="matrix(0.352778,0,0,0.352778,-0.962157,-0.840581)">
          <g
             id="g46"
             transform="translate(18.042999,11.031)">
            <path
               d="M 0.953125,-2.296875 C 1,-2.296875 1.21875,-2.296875 1.21875,-2.5 1.21875,-2.6875 1,-2.6875 0.953125,-2.6875 V -4 c 0,-0.15625 0,-0.34375 -0.203125,-0.34375 -0.203125,0 -0.203125,0.1875 -0.203125,0.34375 v 3.015625 c 0,0.15625 0,0.34375 0.203125,0.34375 0.203125,0 0.203125,-0.1875 0.203125,-0.34375 z m 0,0"
               id="path45" />
          </g>
          <g
             id="g47"
             transform="translate(18.042999,11.031)">
            <path
               d="M 8.3125,-2.296875 C 7.765625,-1.875 7.5,-1.46875 7.421875,-1.328125 c -0.453125,0.6875 -0.53125,1.3125 -0.53125,1.3125 0,0.125 0.125,0.125 0.203125,0.125 C 7.25,0.109375 7.265625,0.09375 7.3125,-0.09375 7.53125,-1.0625 8.125,-1.90625 9.25,-2.359375 9.375,-2.40625 9.40625,-2.421875 9.40625,-2.5 c 0,-0.0625 -0.0625,-0.09375 -0.078125,-0.109375 C 8.875,-2.765625 7.671875,-3.265625 7.296875,-4.9375 7.265625,-5.0625 7.25,-5.09375 7.09375,-5.09375 c -0.078125,0 -0.203125,0 -0.203125,0.125 0,0.015625 0.09375,0.640625 0.5,1.3125 0.203125,0.296875 0.5,0.640625 0.921875,0.96875 H 0.90625 c -0.171875,0 -0.359375,0 -0.359375,0.1875 0,0.203125 0.1875,0.203125 0.359375,0.203125 z m 0,0"
               id="path46" />
          </g>
        </g>
        <g
           fill="#000000"
           fill-opacity="1"
           id="g50"
           transform="matrix(0.352778,0,0,0.352778,-0.962157,-0.840581)">
          <g
             id="g49"
             transform="translate(30.775204,11.031)">
            <path
               d="m 6.5625,-2.296875 c 0.171875,0 0.359375,0 0.359375,-0.203125 0,-0.1875 -0.1875,-0.1875 -0.359375,-0.1875 H 1.171875 c -0.171875,0 -0.34375,0 -0.34375,0.1875 0,0.203125 0.171875,0.203125 0.34375,0.203125 z m 0,0"
               id="path48" />
          </g>
        </g>
        <g
           fill="#000000"
           fill-opacity="1"
           id="g52"
           transform="matrix(0.352778,0,0,0.352778,-0.962157,-0.840581)">
          <g
             id="g51"
             transform="translate(38.521999,2.789)">
            <path
               d="m 3.875,8.515625 -1.75,-3.875 C 2.046875,4.484375 2,4.484375 1.96875,4.484375 c 0,0 -0.0625,0 -0.171875,0.078125 l -0.9375,0.71875 c -0.125,0.109375 -0.125,0.125 -0.125,0.15625 0,0.0625 0.015625,0.109375 0.09375,0.109375 0.0625,0 0.234375,-0.140625 0.34375,-0.21875 C 1.21875,5.28125 1.375,5.171875 1.484375,5.09375 l 1.96875,4.3125 C 3.515625,9.5625 3.5625,9.5625 3.65625,9.5625 c 0.15625,0 0.1875,-0.046875 0.25,-0.1875 L 8.4375,0 C 8.5,-0.140625 8.5,-0.171875 8.5,-0.203125 8.5,-0.296875 8.421875,-0.40625 8.296875,-0.40625 c -0.078125,0 -0.140625,0.0625 -0.21875,0.21875 z m 0,0"
               id="path50" />
          </g>
        </g>
        <path
           fill="none"
           stroke-width="0.398"
           stroke-linecap="butt"
           stroke-linejoin="miter"
           stroke="#000000"
           stroke-opacity="1"
           stroke-miterlimit="10"
           d="m 44.096844,0.20709372 h 4.980469"
           id="path52"
           transform="scale(0.352778)" />
        <g
           fill="#000000"
           fill-opacity="1"
           id="g54"
           transform="matrix(0.352778,0,0,0.352778,-0.962157,-0.840581)">
          <g
             id="g53"
             transform="translate(46.824001,11.031)">
            <path
               d="m 2.890625,-3.515625 c 0.8125,-0.265625 1.390625,-0.953125 1.390625,-1.75 0,-0.8125 -0.875,-1.375 -1.828125,-1.375 -1,0 -1.765625,0.59375 -1.765625,1.359375 0,0.328125 0.21875,0.515625 0.515625,0.515625 0.296875,0 0.5,-0.21875 0.5,-0.515625 0,-0.484375 -0.46875,-0.484375 -0.609375,-0.484375 0.296875,-0.5 0.953125,-0.625 1.3125,-0.625 0.421875,0 0.96875,0.21875 0.96875,1.109375 0,0.125 -0.03125,0.703125 -0.28125,1.140625 C 2.796875,-3.65625 2.453125,-3.625 2.203125,-3.625 2.125,-3.609375 1.890625,-3.59375 1.8125,-3.59375 c -0.078125,0.015625 -0.140625,0.03125 -0.140625,0.125 0,0.109375 0.0625,0.109375 0.234375,0.109375 h 0.4375 c 0.8125,0 1.1875,0.671875 1.1875,1.65625 0,1.359375 -0.6875,1.640625 -1.125,1.640625 -0.4375,0 -1.1875,-0.171875 -1.53125,-0.75 0.34375,0.046875 0.65625,-0.171875 0.65625,-0.546875 0,-0.359375 -0.265625,-0.5625 -0.546875,-0.5625 -0.25,0 -0.5625,0.140625 -0.5625,0.578125 0,0.90625 0.921875,1.5625 2.015625,1.5625 1.21875,0 2.125,-0.90625 2.125,-1.921875 0,-0.8125 -0.640625,-1.59375 -1.671875,-1.8125 z m 0,0"
               id="path53" />
          </g>
        </g>
      </g>
    </g>
    <g
       id="g123">
      <g
         inkscape:label=""
         transform="translate(2.4493509,30.879455)"
         id="g69">
        <g
           fill="#000000"
           fill-opacity="1"
           id="g57"
           transform="matrix(0.352778,0,0,0.352778,-0.962157,-0.840581)">
          <g
             id="g56"
             transform="translate(1.993,2.789)">
            <path
               d="m 3.875,8.515625 -1.75,-3.875 C 2.046875,4.484375 2,4.484375 1.96875,4.484375 c 0,0 -0.0625,0 -0.171875,0.078125 l -0.9375,0.71875 c -0.125,0.109375 -0.125,0.125 -0.125,0.15625 0,0.0625 0.015625,0.109375 0.09375,0.109375 0.0625,0 0.234375,-0.140625 0.34375,-0.21875 C 1.21875,5.28125 1.375,5.171875 1.484375,5.09375 l 1.96875,4.3125 C 3.515625,9.5625 3.5625,9.5625 3.65625,9.5625 c 0.15625,0 0.1875,-0.046875 0.25,-0.1875 L 8.4375,0 C 8.5,-0.140625 8.5,-0.171875 8.5,-0.203125 8.5,-0.296875 8.421875,-0.40625 8.296875,-0.40625 c -0.078125,0 -0.140625,0.0625 -0.21875,0.21875 z m 0,0"
               id="path55" />
          </g>
        </g>
        <path
           fill="none"
           stroke-width="0.398"
           stroke-linecap="butt"
           stroke-linejoin="miter"
           stroke="#000000"
           stroke-opacity="1"
           stroke-miterlimit="10"
           d="m 7.5695,0.20709372 h 4.980469"
           id="path57"
           transform="scale(0.352778)" />
        <g
           fill="#000000"
           fill-opacity="1"
           id="g59"
           transform="matrix(0.352778,0,0,0.352778,-0.962157,-0.840581)">
          <g
             id="g58"
             transform="translate(10.295,11.031)">
            <path
               d="m 2.890625,-3.515625 c 0.8125,-0.265625 1.390625,-0.953125 1.390625,-1.75 0,-0.8125 -0.875,-1.375 -1.828125,-1.375 -1,0 -1.765625,0.59375 -1.765625,1.359375 0,0.328125 0.21875,0.515625 0.515625,0.515625 0.296875,0 0.5,-0.21875 0.5,-0.515625 0,-0.484375 -0.46875,-0.484375 -0.609375,-0.484375 0.296875,-0.5 0.953125,-0.625 1.3125,-0.625 0.421875,0 0.96875,0.21875 0.96875,1.109375 0,0.125 -0.03125,0.703125 -0.28125,1.140625 C 2.796875,-3.65625 2.453125,-3.625 2.203125,-3.625 2.125,-3.609375 1.890625,-3.59375 1.8125,-3.59375 c -0.078125,0.015625 -0.140625,0.03125 -0.140625,0.125 0,0.109375 0.0625,0.109375 0.234375,0.109375 h 0.4375 c 0.8125,0 1.1875,0.671875 1.1875,1.65625 0,1.359375 -0.6875,1.640625 -1.125,1.640625 -0.4375,0 -1.1875,-0.171875 -1.53125,-0.75 0.34375,0.046875 0.65625,-0.171875 0.65625,-0.546875 0,-0.359375 -0.265625,-0.5625 -0.546875,-0.5625 -0.25,0 -0.5625,0.140625 -0.5625,0.578125 0,0.90625 0.921875,1.5625 2.015625,1.5625 1.21875,0 2.125,-0.90625 2.125,-1.921875 0,-0.8125 -0.640625,-1.59375 -1.671875,-1.8125 z m 0,0"
               id="path58" />
          </g>
        </g>
        <g
           fill="#000000"
           fill-opacity="1"
           id="g62"
           transform="matrix(0.352778,0,0,0.352778,-0.962157,-0.840581)">
          <g
             id="g60"
             transform="translate(18.042999,11.031)">
            <path
               d="M 0.953125,-2.296875 C 1,-2.296875 1.21875,-2.296875 1.21875,-2.5 1.21875,-2.6875 1,-2.6875 0.953125,-2.6875 V -4 c 0,-0.15625 0,-0.34375 -0.203125,-0.34375 -0.203125,0 -0.203125,0.1875 -0.203125,0.34375 v 3.015625 c 0,0.15625 0,0.34375 0.203125,0.34375 0.203125,0 0.203125,-0.1875 0.203125,-0.34375 z m 0,0"
               id="path59" />
          </g>
          <g
             id="g61"
             transform="translate(18.042999,11.031)">
            <path
               d="M 8.3125,-2.296875 C 7.765625,-1.875 7.5,-1.46875 7.421875,-1.328125 c -0.453125,0.6875 -0.53125,1.3125 -0.53125,1.3125 0,0.125 0.125,0.125 0.203125,0.125 C 7.25,0.109375 7.265625,0.09375 7.3125,-0.09375 7.53125,-1.0625 8.125,-1.90625 9.25,-2.359375 9.375,-2.40625 9.40625,-2.421875 9.40625,-2.5 c 0,-0.0625 -0.0625,-0.09375 -0.078125,-0.109375 C 8.875,-2.765625 7.671875,-3.265625 7.296875,-4.9375 7.265625,-5.0625 7.25,-5.09375 7.09375,-5.09375 c -0.078125,0 -0.203125,0 -0.203125,0.125 0,0.015625 0.09375,0.640625 0.5,1.3125 0.203125,0.296875 0.5,0.640625 0.921875,0.96875 H 0.90625 c -0.171875,0 -0.359375,0 -0.359375,0.1875 0,0.203125 0.1875,0.203125 0.359375,0.203125 z m 0,0"
               id="path60" />
          </g>
        </g>
        <g
           fill="#000000"
           fill-opacity="1"
           id="g64"
           transform="matrix(0.352778,0,0,0.352778,-0.962157,-0.840581)">
          <g
             id="g63"
             transform="translate(30.775204,11.031)">
            <path
               d="m 6.5625,-2.296875 c 0.171875,0 0.359375,0 0.359375,-0.203125 0,-0.1875 -0.1875,-0.1875 -0.359375,-0.1875 H 1.171875 c -0.171875,0 -0.34375,0 -0.34375,0.1875 0,0.203125 0.171875,0.203125 0.34375,0.203125 z m 0,0"
               id="path62" />
          </g>
        </g>
        <g
           fill="#000000"
           fill-opacity="1"
           id="g66"
           transform="matrix(0.352778,0,0,0.352778,-0.962157,-0.840581)">
          <g
             id="g65"
             transform="translate(38.521999,2.789)">
            <path
               d="m 3.875,8.515625 -1.75,-3.875 C 2.046875,4.484375 2,4.484375 1.96875,4.484375 c 0,0 -0.0625,0 -0.171875,0.078125 l -0.9375,0.71875 c -0.125,0.109375 -0.125,0.125 -0.125,0.15625 0,0.0625 0.015625,0.109375 0.09375,0.109375 0.0625,0 0.234375,-0.140625 0.34375,-0.21875 C 1.21875,5.28125 1.375,5.171875 1.484375,5.09375 l 1.96875,4.3125 C 3.515625,9.5625 3.5625,9.5625 3.65625,9.5625 c 0.15625,0 0.1875,-0.046875 0.25,-0.1875 L 8.4375,0 C 8.5,-0.140625 8.5,-0.171875 8.5,-0.203125 8.5,-0.296875 8.421875,-0.40625 8.296875,-0.40625 c -0.078125,0 -0.140625,0.0625 -0.21875,0.21875 z m 0,0"
               id="path64" />
          </g>
        </g>
        <path
           fill="none"
           stroke-width="0.398"
           stroke-linecap="butt"
           stroke-linejoin="miter"
           stroke="#000000"
           stroke-opacity="1"
           stroke-miterlimit="10"
           d="m 44.096844,0.20709372 h 4.980469"
           id="path66"
           transform="scale(0.352778)" />
        <g
           fill="#000000"
           fill-opacity="1"
           id="g68"
           transform="matrix(0.352778,0,0,0.352778,-0.962157,-0.840581)">
          <g
             id="g67"
             transform="translate(46.824001,11.031)">
            <path
               d="m 2.890625,-3.515625 c 0.8125,-0.265625 1.390625,-0.953125 1.390625,-1.75 0,-0.8125 -0.875,-1.375 -1.828125,-1.375 -1,0 -1.765625,0.59375 -1.765625,1.359375 0,0.328125 0.21875,0.515625 0.515625,0.515625 0.296875,0 0.5,-0.21875 0.5,-0.515625 0,-0.484375 -0.46875,-0.484375 -0.609375,-0.484375 0.296875,-0.5 0.953125,-0.625 1.3125,-0.625 0.421875,0 0.96875,0.21875 0.96875,1.109375 0,0.125 -0.03125,0.703125 -0.28125,1.140625 C 2.796875,-3.65625 2.453125,-3.625 2.203125,-3.625 2.125,-3.609375 1.890625,-3.59375 1.8125,-3.59375 c -0.078125,0.015625 -0.140625,0.03125 -0.140625,0.125 0,0.109375 0.0625,0.109375 0.234375,0.109375 h 0.4375 c 0.8125,0 1.1875,0.671875 1.1875,1.65625 0,1.359375 -0.6875,1.640625 -1.125,1.640625 -0.4375,0 -1.1875,-0.171875 -1.53125,-0.75 0.34375,0.046875 0.65625,-0.171875 0.65625,-0.546875 0,-0.359375 -0.265625,-0.5625 -0.546875,-0.5625 -0.25,0 -0.5625,0.140625 -0.5625,0.578125 0,0.90625 0.921875,1.5625 2.015625,1.5625 1.21875,0 2.125,-0.90625 2.125,-1.921875 0,-0.8125 -0.640625,-1.59375 -1.671875,-1.8125 z m 0,0"
               id="path67" />
          </g>
        </g>
      </g>
      <g
         inkscape:label=""
         transform="translate(2.4493509,26.447901)"
         id="g16">
        <g
           fill="#000000"
           fill-opacity="1"
           id="g3"
           transform="matrix(0.352778,0,0,0.352778,-0.962157,-0.840581)">
          <g
             id="g2"
             transform="translate(1.993,2.789)">
            <path
               d="m 3.875,8.515625 -1.75,-3.875 C 2.046875,4.484375 2,4.484375 1.96875,4.484375 c 0,0 -0.0625,0 -0.171875,0.078125 l -0.9375,0.71875 c -0.125,0.109375 -0.125,0.125 -0.125,0.15625 0,0.0625 0.015625,0.109375 0.09375,0.109375 0.0625,0 0.234375,-0.140625 0.34375,-0.21875 C 1.21875,5.28125 1.375,5.171875 1.484375,5.09375 l 1.96875,4.3125 C 3.515625,9.5625 3.5625,9.5625 3.65625,9.5625 c 0.15625,0 0.1875,-0.046875 0.25,-0.1875 L 8.4375,0 C 8.5,-0.140625 8.5,-0.171875 8.5,-0.203125 8.5,-0.296875 8.421875,-0.40625 8.296875,-0.40625 c -0.078125,0 -0.140625,0.0625 -0.21875,0.21875 z m 0,0"
               id="path9" />
          </g>
        </g>
        <path
           fill="none"
           stroke-width="0.398"
           stroke-linecap="butt"
           stroke-linejoin="miter"
           stroke="#000000"
           stroke-opacity="1"
           stroke-miterlimit="10"
           d="m 7.5695,0.20709372 h 4.980469"
           id="path5"
           transform="scale(0.352778)" />
        <g
           fill="#000000"
           fill-opacity="1"
           id="g8"
           transform="matrix(0.352778,0,0,0.352778,-0.962157,-0.840581)">
          <g
             id="g7"
             transform="translate(10.295,11.031)">
            <path
               d="m 1.265625,-0.765625 1.0625,-1.03125 c 1.546875,-1.375 2.140625,-1.90625 2.140625,-2.90625 0,-1.140625 -0.890625,-1.9375 -2.109375,-1.9375 -1.125,0 -1.859375,0.921875 -1.859375,1.8125 0,0.546875 0.5,0.546875 0.53125,0.546875 0.171875,0 0.515625,-0.109375 0.515625,-0.53125 0,-0.25 -0.1875,-0.515625 -0.53125,-0.515625 -0.078125,0 -0.09375,0 -0.125,0.015625 0.21875,-0.65625 0.765625,-1.015625 1.34375,-1.015625 0.90625,0 1.328125,0.8125 1.328125,1.625 C 3.5625,-3.90625 3.078125,-3.125 2.515625,-2.5 l -1.90625,2.125 C 0.5,-0.265625 0.5,-0.234375 0.5,0 H 4.203125 L 4.46875,-1.734375 H 4.234375 C 4.171875,-1.4375 4.109375,-1 4,-0.84375 3.9375,-0.765625 3.28125,-0.765625 3.0625,-0.765625 Z m 0,0"
               id="path10" />
          </g>
        </g>
        <g
           fill="#000000"
           fill-opacity="1"
           id="g9"
           transform="matrix(0.352778,0,0,0.352778,-0.962157,-0.840581)">
          <g
             id="use6"
             transform="translate(18.042999,11.031)">
            <path
               d="M 0.953125,-2.296875 C 1,-2.296875 1.21875,-2.296875 1.21875,-2.5 1.21875,-2.6875 1,-2.6875 0.953125,-2.6875 V -4 c 0,-0.15625 0,-0.34375 -0.203125,-0.34375 -0.203125,0 -0.203125,0.1875 -0.203125,0.34375 v 3.015625 c 0,0.15625 0,0.34375 0.203125,0.34375 0.203125,0 0.203125,-0.1875 0.203125,-0.34375 z m 0,0"
               id="path11" />
          </g>
          <g
             id="use7"
             transform="translate(18.042999,11.031)">
            <path
               d="M 8.3125,-2.296875 C 7.765625,-1.875 7.5,-1.46875 7.421875,-1.328125 c -0.453125,0.6875 -0.53125,1.3125 -0.53125,1.3125 0,0.125 0.125,0.125 0.203125,0.125 C 7.25,0.109375 7.265625,0.09375 7.3125,-0.09375 7.53125,-1.0625 8.125,-1.90625 9.25,-2.359375 9.375,-2.40625 9.40625,-2.421875 9.40625,-2.5 c 0,-0.0625 -0.0625,-0.09375 -0.078125,-0.109375 C 8.875,-2.765625 7.671875,-3.265625 7.296875,-4.9375 7.265625,-5.0625 7.25,-5.09375 7.09375,-5.09375 c -0.078125,0 -0.203125,0 -0.203125,0.125 0,0.015625 0.09375,0.640625 0.5,1.3125 0.203125,0.296875 0.5,0.640625 0.921875,0.96875 H 0.90625 c -0.171875,0 -0.359375,0 -0.359375,0.1875 0,0.203125 0.1875,0.203125 0.359375,0.203125 z m 0,0"
               id="path12" />
          </g>
        </g>
        <g
           fill="#000000"
           fill-opacity="1"
           id="g10"
           transform="matrix(0.352778,0,0,0.352778,-0.962157,-0.840581)">
          <g
             id="use8"
             transform="translate(30.773001,2.789)">
            <path
               d="m 3.875,8.515625 -1.75,-3.875 C 2.046875,4.484375 2,4.484375 1.96875,4.484375 c 0,0 -0.0625,0 -0.171875,0.078125 l -0.9375,0.71875 c -0.125,0.109375 -0.125,0.125 -0.125,0.15625 0,0.0625 0.015625,0.109375 0.09375,0.109375 0.0625,0 0.234375,-0.140625 0.34375,-0.21875 C 1.21875,5.28125 1.375,5.171875 1.484375,5.09375 l 1.96875,4.3125 C 3.515625,9.5625 3.5625,9.5625 3.65625,9.5625 c 0.15625,0 0.1875,-0.046875 0.25,-0.1875 L 8.4375,0 C 8.5,-0.140625 8.5,-0.171875 8.5,-0.203125 8.5,-0.296875 8.421875,-0.40625 8.296875,-0.40625 c -0.078125,0 -0.140625,0.0625 -0.21875,0.21875 z m 0,0"
               id="path13" />
          </g>
        </g>
        <path
           fill="none"
           stroke-width="0.398"
           stroke-linecap="butt"
           stroke-linejoin="miter"
           stroke="#000000"
           stroke-opacity="1"
           stroke-miterlimit="10"
           d="m 36.346844,0.20709372 h 4.984375"
           id="path14"
           transform="scale(0.352778)" />
        <g
           fill="#000000"
           fill-opacity="1"
           id="g15"
           transform="matrix(0.352778,0,0,0.352778,-0.962157,-0.840581)">
          <g
             id="use9"
             transform="translate(39.076,11.031)">
            <path
               d="m 1.265625,-0.765625 1.0625,-1.03125 c 1.546875,-1.375 2.140625,-1.90625 2.140625,-2.90625 0,-1.140625 -0.890625,-1.9375 -2.109375,-1.9375 -1.125,0 -1.859375,0.921875 -1.859375,1.8125 0,0.546875 0.5,0.546875 0.53125,0.546875 0.171875,0 0.515625,-0.109375 0.515625,-0.53125 0,-0.25 -0.1875,-0.515625 -0.53125,-0.515625 -0.078125,0 -0.09375,0 -0.125,0.015625 0.21875,-0.65625 0.765625,-1.015625 1.34375,-1.015625 0.90625,0 1.328125,0.8125 1.328125,1.625 C 3.5625,-3.90625 3.078125,-3.125 2.515625,-2.5 l -1.90625,2.125 C 0.5,-0.265625 0.5,-0.234375 0.5,0 H 4.203125 L 4.46875,-1.734375 H 4.234375 C 4.171875,-1.4375 4.109375,-1 4,-0.84375 3.9375,-0.765625 3.28125,-0.765625 3.0625,-0.765625 Z m 0,0"
               id="path15" />
          </g>
        </g>
      </g>
    </g>
    <g
       id="g124">
      <g
         inkscape:label=""
         transform="translate(25.318119,26.447901)"
         id="g41">
        <g
           fill="#000000"
           fill-opacity="1"
           id="g29"
           transform="matrix(0.352778,0,0,0.352778,-0.962157,-0.840581)">
          <g
             id="g28"
             transform="translate(1.993,2.789)">
            <path
               d="m 3.875,8.515625 -1.75,-3.875 C 2.046875,4.484375 2,4.484375 1.96875,4.484375 c 0,0 -0.0625,0 -0.171875,0.078125 l -0.9375,0.71875 c -0.125,0.109375 -0.125,0.125 -0.125,0.15625 0,0.0625 0.015625,0.109375 0.09375,0.109375 0.0625,0 0.234375,-0.140625 0.34375,-0.21875 C 1.21875,5.28125 1.375,5.171875 1.484375,5.09375 l 1.96875,4.3125 C 3.515625,9.5625 3.5625,9.5625 3.65625,9.5625 c 0.15625,0 0.1875,-0.046875 0.25,-0.1875 L 8.4375,0 C 8.5,-0.140625 8.5,-0.171875 8.5,-0.203125 8.5,-0.296875 8.421875,-0.40625 8.296875,-0.40625 c -0.078125,0 -0.140625,0.0625 -0.21875,0.21875 z m 0,0"
               id="path27" />
          </g>
        </g>
        <path
           fill="none"
           stroke-width="0.398"
           stroke-linecap="butt"
           stroke-linejoin="miter"
           stroke="#000000"
           stroke-opacity="1"
           stroke-miterlimit="10"
           d="m 7.5695,0.20709372 h 4.980469"
           id="path29"
           transform="scale(0.352778)" />
        <g
           fill="#000000"
           fill-opacity="1"
           id="g31"
           transform="matrix(0.352778,0,0,0.352778,-0.962157,-0.840581)">
          <g
             id="g30"
             transform="translate(10.295,11.031)">
            <path
               d="m 1.265625,-0.765625 1.0625,-1.03125 c 1.546875,-1.375 2.140625,-1.90625 2.140625,-2.90625 0,-1.140625 -0.890625,-1.9375 -2.109375,-1.9375 -1.125,0 -1.859375,0.921875 -1.859375,1.8125 0,0.546875 0.5,0.546875 0.53125,0.546875 0.171875,0 0.515625,-0.109375 0.515625,-0.53125 0,-0.25 -0.1875,-0.515625 -0.53125,-0.515625 -0.078125,0 -0.09375,0 -0.125,0.015625 0.21875,-0.65625 0.765625,-1.015625 1.34375,-1.015625 0.90625,0 1.328125,0.8125 1.328125,1.625 C 3.5625,-3.90625 3.078125,-3.125 2.515625,-2.5 l -1.90625,2.125 C 0.5,-0.265625 0.5,-0.234375 0.5,0 H 4.203125 L 4.46875,-1.734375 H 4.234375 C 4.171875,-1.4375 4.109375,-1 4,-0.84375 3.9375,-0.765625 3.28125,-0.765625 3.0625,-0.765625 Z m 0,0"
               id="path30" />
          </g>
        </g>
        <g
           fill="#000000"
           fill-opacity="1"
           id="g34"
           transform="matrix(0.352778,0,0,0.352778,-0.962157,-0.840581)">
          <g
             id="g32"
             transform="translate(18.042999,11.031)">
            <path
               d="M 0.953125,-2.296875 C 1,-2.296875 1.21875,-2.296875 1.21875,-2.5 1.21875,-2.6875 1,-2.6875 0.953125,-2.6875 V -4 c 0,-0.15625 0,-0.34375 -0.203125,-0.34375 -0.203125,0 -0.203125,0.1875 -0.203125,0.34375 v 3.015625 c 0,0.15625 0,0.34375 0.203125,0.34375 0.203125,0 0.203125,-0.1875 0.203125,-0.34375 z m 0,0"
               id="path31" />
          </g>
          <g
             id="g33"
             transform="translate(18.042999,11.031)">
            <path
               d="M 8.3125,-2.296875 C 7.765625,-1.875 7.5,-1.46875 7.421875,-1.328125 c -0.453125,0.6875 -0.53125,1.3125 -0.53125,1.3125 0,0.125 0.125,0.125 0.203125,0.125 C 7.25,0.109375 7.265625,0.09375 7.3125,-0.09375 7.53125,-1.0625 8.125,-1.90625 9.25,-2.359375 9.375,-2.40625 9.40625,-2.421875 9.40625,-2.5 c 0,-0.0625 -0.0625,-0.09375 -0.078125,-0.109375 C 8.875,-2.765625 7.671875,-3.265625 7.296875,-4.9375 7.265625,-5.0625 7.25,-5.09375 7.09375,-5.09375 c -0.078125,0 -0.203125,0 -0.203125,0.125 0,0.015625 0.09375,0.640625 0.5,1.3125 0.203125,0.296875 0.5,0.640625 0.921875,0.96875 H 0.90625 c -0.171875,0 -0.359375,0 -0.359375,0.1875 0,0.203125 0.1875,0.203125 0.359375,0.203125 z m 0,0"
               id="path32" />
          </g>
        </g>
        <g
           fill="#000000"
           fill-opacity="1"
           id="g36"
           transform="matrix(0.352778,0,0,0.352778,-0.962157,-0.840581)">
          <g
             id="g35"
             transform="translate(30.775204,11.031)">
            <path
               d="m 6.5625,-2.296875 c 0.171875,0 0.359375,0 0.359375,-0.203125 0,-0.1875 -0.1875,-0.1875 -0.359375,-0.1875 H 1.171875 c -0.171875,0 -0.34375,0 -0.34375,0.1875 0,0.203125 0.171875,0.203125 0.34375,0.203125 z m 0,0"
               id="path34" />
          </g>
        </g>
        <g
           fill="#000000"
           fill-opacity="1"
           id="g38"
           transform="matrix(0.352778,0,0,0.352778,-0.962157,-0.840581)">
          <g
             id="g37"
             transform="translate(38.521999,2.789)">
            <path
               d="m 3.875,8.515625 -1.75,-3.875 C 2.046875,4.484375 2,4.484375 1.96875,4.484375 c 0,0 -0.0625,0 -0.171875,0.078125 l -0.9375,0.71875 c -0.125,0.109375 -0.125,0.125 -0.125,0.15625 0,0.0625 0.015625,0.109375 0.09375,0.109375 0.0625,0 0.234375,-0.140625 0.34375,-0.21875 C 1.21875,5.28125 1.375,5.171875 1.484375,5.09375 l 1.96875,4.3125 C 3.515625,9.5625 3.5625,9.5625 3.65625,9.5625 c 0.15625,0 0.1875,-0.046875 0.25,-0.1875 L 8.4375,0 C 8.5,-0.140625 8.5,-0.171875 8.5,-0.203125 8.5,-0.296875 8.421875,-0.40625 8.296875,-0.40625 c -0.078125,0 -0.140625,0.0625 -0.21875,0.21875 z m 0,0"
               id="path36" />
          </g>
        </g>
        <path
           fill="none"
           stroke-width="0.398"
           stroke-linecap="butt"
           stroke-linejoin="miter"
           stroke="#000000"
           stroke-opacity="1"
           stroke-miterlimit="10"
           d="m 44.096844,0.20709372 h 4.980469"
           id="path38"
           transform="scale(0.352778)" />
        <g
           fill="#000000"
           fill-opacity="1"
           id="g40"
           transform="matrix(0.352778,0,0,0.352778,-0.962157,-0.840581)">
          <g
             id="g39"
             transform="translate(46.824001,11.031)">
            <path
               d="m 1.265625,-0.765625 1.0625,-1.03125 c 1.546875,-1.375 2.140625,-1.90625 2.140625,-2.90625 0,-1.140625 -0.890625,-1.9375 -2.109375,-1.9375 -1.125,0 -1.859375,0.921875 -1.859375,1.8125 0,0.546875 0.5,0.546875 0.53125,0.546875 0.171875,0 0.515625,-0.109375 0.515625,-0.53125 0,-0.25 -0.1875,-0.515625 -0.53125,-0.515625 -0.078125,0 -0.09375,0 -0.125,0.015625 0.21875,-0.65625 0.765625,-1.015625 1.34375,-1.015625 0.90625,0 1.328125,0.8125 1.328125,1.625 C 3.5625,-3.90625 3.078125,-3.125 2.515625,-2.5 l -1.90625,2.125 C 0.5,-0.265625 0.5,-0.234375 0.5,0 H 4.203125 L 4.46875,-1.734375 H 4.234375 C 4.171875,-1.4375 4.109375,-1 4,-0.84375 3.9375,-0.765625 3.28125,-0.765625 3.0625,-0.765625 Z m 0,0"
               id="path39" />
          </g>
        </g>
      </g>
      <g
         inkscape:label=""
         transform="translate(26.412465,30.879455)"
         id="g81">
        <g
           fill="#000000"
           fill-opacity="1"
           id="g71"
           transform="matrix(0.352778,0,0,0.352778,-0.962157,-0.840581)">
          <g
             id="g70"
             transform="translate(1.993,2.789)">
            <path
               d="m 3.875,8.515625 -1.75,-3.875 C 2.046875,4.484375 2,4.484375 1.96875,4.484375 c 0,0 -0.0625,0 -0.171875,0.078125 l -0.9375,0.71875 c -0.125,0.109375 -0.125,0.125 -0.125,0.15625 0,0.0625 0.015625,0.109375 0.09375,0.109375 0.0625,0 0.234375,-0.140625 0.34375,-0.21875 C 1.21875,5.28125 1.375,5.171875 1.484375,5.09375 l 1.96875,4.3125 C 3.515625,9.5625 3.5625,9.5625 3.65625,9.5625 c 0.15625,0 0.1875,-0.046875 0.25,-0.1875 L 8.4375,0 C 8.5,-0.140625 8.5,-0.171875 8.5,-0.203125 8.5,-0.296875 8.421875,-0.40625 8.296875,-0.40625 c -0.078125,0 -0.140625,0.0625 -0.21875,0.21875 z m 0,0"
               id="path69" />
          </g>
        </g>
        <path
           fill="none"
           stroke-width="0.398"
           stroke-linecap="butt"
           stroke-linejoin="miter"
           stroke="#000000"
           stroke-opacity="1"
           stroke-miterlimit="10"
           d="m 7.5695,0.20709372 h 4.980469"
           id="path71"
           transform="scale(0.352778)" />
        <g
           fill="#000000"
           fill-opacity="1"
           id="g73"
           transform="matrix(0.352778,0,0,0.352778,-0.962157,-0.840581)">
          <g
             id="g72"
             transform="translate(10.295,11.031)">
            <path
               d="m 2.890625,-3.515625 c 0.8125,-0.265625 1.390625,-0.953125 1.390625,-1.75 0,-0.8125 -0.875,-1.375 -1.828125,-1.375 -1,0 -1.765625,0.59375 -1.765625,1.359375 0,0.328125 0.21875,0.515625 0.515625,0.515625 0.296875,0 0.5,-0.21875 0.5,-0.515625 0,-0.484375 -0.46875,-0.484375 -0.609375,-0.484375 0.296875,-0.5 0.953125,-0.625 1.3125,-0.625 0.421875,0 0.96875,0.21875 0.96875,1.109375 0,0.125 -0.03125,0.703125 -0.28125,1.140625 C 2.796875,-3.65625 2.453125,-3.625 2.203125,-3.625 2.125,-3.609375 1.890625,-3.59375 1.8125,-3.59375 c -0.078125,0.015625 -0.140625,0.03125 -0.140625,0.125 0,0.109375 0.0625,0.109375 0.234375,0.109375 h 0.4375 c 0.8125,0 1.1875,0.671875 1.1875,1.65625 0,1.359375 -0.6875,1.640625 -1.125,1.640625 -0.4375,0 -1.1875,-0.171875 -1.53125,-0.75 0.34375,0.046875 0.65625,-0.171875 0.65625,-0.546875 0,-0.359375 -0.265625,-0.5625 -0.546875,-0.5625 -0.25,0 -0.5625,0.140625 -0.5625,0.578125 0,0.90625 0.921875,1.5625 2.015625,1.5625 1.21875,0 2.125,-0.90625 2.125,-1.921875 0,-0.8125 -0.640625,-1.59375 -1.671875,-1.8125 z m 0,0"
               id="path72" />
          </g>
        </g>
        <g
           fill="#000000"
           fill-opacity="1"
           id="g76"
           transform="matrix(0.352778,0,0,0.352778,-0.962157,-0.840581)">
          <g
             id="g74"
             transform="translate(18.042999,11.031)">
            <path
               d="M 0.953125,-2.296875 C 1,-2.296875 1.21875,-2.296875 1.21875,-2.5 1.21875,-2.6875 1,-2.6875 0.953125,-2.6875 V -4 c 0,-0.15625 0,-0.34375 -0.203125,-0.34375 -0.203125,0 -0.203125,0.1875 -0.203125,0.34375 v 3.015625 c 0,0.15625 0,0.34375 0.203125,0.34375 0.203125,0 0.203125,-0.1875 0.203125,-0.34375 z m 0,0"
               id="path73" />
          </g>
          <g
             id="g75"
             transform="translate(18.042999,11.031)">
            <path
               d="M 8.3125,-2.296875 C 7.765625,-1.875 7.5,-1.46875 7.421875,-1.328125 c -0.453125,0.6875 -0.53125,1.3125 -0.53125,1.3125 0,0.125 0.125,0.125 0.203125,0.125 C 7.25,0.109375 7.265625,0.09375 7.3125,-0.09375 7.53125,-1.0625 8.125,-1.90625 9.25,-2.359375 9.375,-2.40625 9.40625,-2.421875 9.40625,-2.5 c 0,-0.0625 -0.0625,-0.09375 -0.078125,-0.109375 C 8.875,-2.765625 7.671875,-3.265625 7.296875,-4.9375 7.265625,-5.0625 7.25,-5.09375 7.09375,-5.09375 c -0.078125,0 -0.203125,0 -0.203125,0.125 0,0.015625 0.09375,0.640625 0.5,1.3125 0.203125,0.296875 0.5,0.640625 0.921875,0.96875 H 0.90625 c -0.171875,0 -0.359375,0 -0.359375,0.1875 0,0.203125 0.1875,0.203125 0.359375,0.203125 z m 0,0"
               id="path74" />
          </g>
        </g>
        <g
           fill="#000000"
           fill-opacity="1"
           id="g78"
           transform="matrix(0.352778,0,0,0.352778,-0.962157,-0.840581)">
          <g
             id="g77"
             transform="translate(30.773001,2.789)">
            <path
               d="m 3.875,8.515625 -1.75,-3.875 C 2.046875,4.484375 2,4.484375 1.96875,4.484375 c 0,0 -0.0625,0 -0.171875,0.078125 l -0.9375,0.71875 c -0.125,0.109375 -0.125,0.125 -0.125,0.15625 0,0.0625 0.015625,0.109375 0.09375,0.109375 0.0625,0 0.234375,-0.140625 0.34375,-0.21875 C 1.21875,5.28125 1.375,5.171875 1.484375,5.09375 l 1.96875,4.3125 C 3.515625,9.5625 3.5625,9.5625 3.65625,9.5625 c 0.15625,0 0.1875,-0.046875 0.25,-0.1875 L 8.4375,0 C 8.5,-0.140625 8.5,-0.171875 8.5,-0.203125 8.5,-0.296875 8.421875,-0.40625 8.296875,-0.40625 c -0.078125,0 -0.140625,0.0625 -0.21875,0.21875 z m 0,0"
               id="path76" />
          </g>
        </g>
        <path
           fill="none"
           stroke-width="0.398"
           stroke-linecap="butt"
           stroke-linejoin="miter"
           stroke="#000000"
           stroke-opacity="1"
           stroke-miterlimit="10"
           d="m 36.346844,0.20709372 h 4.984375"
           id="path78"
           transform="scale(0.352778)" />
        <g
           fill="#000000"
           fill-opacity="1"
           id="g80"
           transform="matrix(0.352778,0,0,0.352778,-0.962157,-0.840581)">
          <g
             id="g79"
             transform="translate(39.076,11.031)">
            <path
               d="m 2.890625,-3.515625 c 0.8125,-0.265625 1.390625,-0.953125 1.390625,-1.75 0,-0.8125 -0.875,-1.375 -1.828125,-1.375 -1,0 -1.765625,0.59375 -1.765625,1.359375 0,0.328125 0.21875,0.515625 0.515625,0.515625 0.296875,0 0.5,-0.21875 0.5,-0.515625 0,-0.484375 -0.46875,-0.484375 -0.609375,-0.484375 0.296875,-0.5 0.953125,-0.625 1.3125,-0.625 0.421875,0 0.96875,0.21875 0.96875,1.109375 0,0.125 -0.03125,0.703125 -0.28125,1.140625 C 2.796875,-3.65625 2.453125,-3.625 2.203125,-3.625 2.125,-3.609375 1.890625,-3.59375 1.8125,-3.59375 c -0.078125,0.015625 -0.140625,0.03125 -0.140625,0.125 0,0.109375 0.0625,0.109375 0.234375,0.109375 h 0.4375 c 0.8125,0 1.1875,0.671875 1.1875,1.65625 0,1.359375 -0.6875,1.640625 -1.125,1.640625 -0.4375,0 -1.1875,-0.171875 -1.53125,-0.75 0.34375,0.046875 0.65625,-0.171875 0.65625,-0.546875 0,-0.359375 -0.265625,-0.5625 -0.546875,-0.5625 -0.25,0 -0.5625,0.140625 -0.5625,0.578125 0,0.90625 0.921875,1.5625 2.015625,1.5625 1.21875,0 2.125,-0.90625 2.125,-1.921875 0,-0.8125 -0.640625,-1.59375 -1.671875,-1.8125 z m 0,0"
               id="path79" />
          </g>
        </g>
      </g>
    </g>
    <g
       id="g113"
       transform="translate(-42.69904,18.689906)">
      <g
         inkscape:label=""
         transform="translate(68.017159,30.879455)"
         id="g95">
        <g
           fill="#000000"
           fill-opacity="1"
           id="g83"
           transform="matrix(0.352778,0,0,0.352778,-0.962157,-0.840581)">
          <g
             id="g82"
             transform="translate(1.993,2.789)">
            <path
               d="m 3.875,8.515625 -1.75,-3.875 C 2.046875,4.484375 2,4.484375 1.96875,4.484375 c 0,0 -0.0625,0 -0.171875,0.078125 l -0.9375,0.71875 c -0.125,0.109375 -0.125,0.125 -0.125,0.15625 0,0.0625 0.015625,0.109375 0.09375,0.109375 0.0625,0 0.234375,-0.140625 0.34375,-0.21875 C 1.21875,5.28125 1.375,5.171875 1.484375,5.09375 l 1.96875,4.3125 C 3.515625,9.5625 3.5625,9.5625 3.65625,9.5625 c 0.15625,0 0.1875,-0.046875 0.25,-0.1875 L 8.4375,0 C 8.5,-0.140625 8.5,-0.171875 8.5,-0.203125 8.5,-0.296875 8.421875,-0.40625 8.296875,-0.40625 c -0.078125,0 -0.140625,0.0625 -0.21875,0.21875 z m 0,0"
               id="path81" />
          </g>
        </g>
        <path
           fill="none"
           stroke-width="0.398"
           stroke-linecap="butt"
           stroke-linejoin="miter"
           stroke="#000000"
           stroke-opacity="1"
           stroke-miterlimit="10"
           d="m 7.5695,0.20709372 h 4.980469"
           id="path83"
           transform="scale(0.352778)" />
        <g
           fill="#000000"
           fill-opacity="1"
           id="g85"
           transform="matrix(0.352778,0,0,0.352778,-0.962157,-0.840581)">
          <g
             id="g84"
             transform="translate(10.295,11.031)">
            <path
               d="m 1.265625,-0.765625 1.0625,-1.03125 c 1.546875,-1.375 2.140625,-1.90625 2.140625,-2.90625 0,-1.140625 -0.890625,-1.9375 -2.109375,-1.9375 -1.125,0 -1.859375,0.921875 -1.859375,1.8125 0,0.546875 0.5,0.546875 0.53125,0.546875 0.171875,0 0.515625,-0.109375 0.515625,-0.53125 0,-0.25 -0.1875,-0.515625 -0.53125,-0.515625 -0.078125,0 -0.09375,0 -0.125,0.015625 0.21875,-0.65625 0.765625,-1.015625 1.34375,-1.015625 0.90625,0 1.328125,0.8125 1.328125,1.625 C 3.5625,-3.90625 3.078125,-3.125 2.515625,-2.5 l -1.90625,2.125 C 0.5,-0.265625 0.5,-0.234375 0.5,0 H 4.203125 L 4.46875,-1.734375 H 4.234375 C 4.171875,-1.4375 4.109375,-1 4,-0.84375 3.9375,-0.765625 3.28125,-0.765625 3.0625,-0.765625 Z m 0,0"
               id="path84" />
          </g>
        </g>
        <g
           fill="#000000"
           fill-opacity="1"
           id="g88"
           transform="matrix(0.352778,0,0,0.352778,-0.962157,-0.840581)">
          <g
             id="g86"
             transform="translate(18.042999,11.031)">
            <path
               d="M 0.953125,-2.296875 C 1,-2.296875 1.21875,-2.296875 1.21875,-2.5 1.21875,-2.6875 1,-2.6875 0.953125,-2.6875 V -4 c 0,-0.15625 0,-0.34375 -0.203125,-0.34375 -0.203125,0 -0.203125,0.1875 -0.203125,0.34375 v 3.015625 c 0,0.15625 0,0.34375 0.203125,0.34375 0.203125,0 0.203125,-0.1875 0.203125,-0.34375 z m 0,0"
               id="path85" />
          </g>
          <g
             id="g87"
             transform="translate(18.042999,11.031)">
            <path
               d="M 8.3125,-2.296875 C 7.765625,-1.875 7.5,-1.46875 7.421875,-1.328125 c -0.453125,0.6875 -0.53125,1.3125 -0.53125,1.3125 0,0.125 0.125,0.125 0.203125,0.125 C 7.25,0.109375 7.265625,0.09375 7.3125,-0.09375 7.53125,-1.0625 8.125,-1.90625 9.25,-2.359375 9.375,-2.40625 9.40625,-2.421875 9.40625,-2.5 c 0,-0.0625 -0.0625,-0.09375 -0.078125,-0.109375 C 8.875,-2.765625 7.671875,-3.265625 7.296875,-4.9375 7.265625,-5.0625 7.25,-5.09375 7.09375,-5.09375 c -0.078125,0 -0.203125,0 -0.203125,0.125 0,0.015625 0.09375,0.640625 0.5,1.3125 0.203125,0.296875 0.5,0.640625 0.921875,0.96875 H 0.90625 c -0.171875,0 -0.359375,0 -0.359375,0.1875 0,0.203125 0.1875,0.203125 0.359375,0.203125 z m 0,0"
               id="path86" />
          </g>
        </g>
        <g
           fill="#000000"
           fill-opacity="1"
           id="g90"
           transform="matrix(0.352778,0,0,0.352778,-0.962157,-0.840581)">
          <g
             id="g89"
             transform="translate(30.775204,11.031)">
            <path
               d="M 4.078125,-3.125 H 6.84375 c 0.171875,0 0.359375,0 0.359375,-0.1875 0,-0.203125 -0.1875,-0.203125 -0.359375,-0.203125 H 4.078125 v -2.75 c 0,-0.171875 0,-0.375 -0.203125,-0.375 -0.203125,0 -0.203125,0.1875 -0.203125,0.34375 v 2.78125 h -2.78125 c -0.15625,0 -0.34375,0 -0.34375,0.203125 0,0.1875 0.1875,0.1875 0.34375,0.1875 h 2.78125 v 2.71875 h -2.78125 c -0.15625,0 -0.34375,0 -0.34375,0.203125 C 0.546875,0 0.734375,0 0.890625,0 H 6.84375 c 0.171875,0 0.359375,0 0.359375,-0.203125 0,-0.203125 -0.1875,-0.203125 -0.359375,-0.203125 H 4.078125 Z m 0,0"
               id="path88" />
          </g>
        </g>
        <g
           fill="#000000"
           fill-opacity="1"
           id="g92"
           transform="matrix(0.352778,0,0,0.352778,-0.962157,-0.840581)">
          <g
             id="g91"
             transform="translate(38.521999,2.789)">
            <path
               d="m 3.875,8.515625 -1.75,-3.875 C 2.046875,4.484375 2,4.484375 1.96875,4.484375 c 0,0 -0.0625,0 -0.171875,0.078125 l -0.9375,0.71875 c -0.125,0.109375 -0.125,0.125 -0.125,0.15625 0,0.0625 0.015625,0.109375 0.09375,0.109375 0.0625,0 0.234375,-0.140625 0.34375,-0.21875 C 1.21875,5.28125 1.375,5.171875 1.484375,5.09375 l 1.96875,4.3125 C 3.515625,9.5625 3.5625,9.5625 3.65625,9.5625 c 0.15625,0 0.1875,-0.046875 0.25,-0.1875 L 8.4375,0 C 8.5,-0.140625 8.5,-0.171875 8.5,-0.203125 8.5,-0.296875 8.421875,-0.40625 8.296875,-0.40625 c -0.078125,0 -0.140625,0.0625 -0.21875,0.21875 z m 0,0"
               id="path90" />
          </g>
        </g>
        <path
           fill="none"
           stroke-width="0.398"
           stroke-linecap="butt"
           stroke-linejoin="miter"
           stroke="#000000"
           stroke-opacity="1"
           stroke-miterlimit="10"
           d="m 44.096844,0.20709372 h 4.980469"
           id="path92"
           transform="scale(0.352778)" />
        <g
           fill="#000000"
           fill-opacity="1"
           id="g94"
           transform="matrix(0.352778,0,0,0.352778,-0.962157,-0.840581)">
          <g
             id="g93"
             transform="translate(46.824001,11.031)">
            <path
               d="m 1.265625,-0.765625 1.0625,-1.03125 c 1.546875,-1.375 2.140625,-1.90625 2.140625,-2.90625 0,-1.140625 -0.890625,-1.9375 -2.109375,-1.9375 -1.125,0 -1.859375,0.921875 -1.859375,1.8125 0,0.546875 0.5,0.546875 0.53125,0.546875 0.171875,0 0.515625,-0.109375 0.515625,-0.53125 0,-0.25 -0.1875,-0.515625 -0.53125,-0.515625 -0.078125,0 -0.09375,0 -0.125,0.015625 0.21875,-0.65625 0.765625,-1.015625 1.34375,-1.015625 0.90625,0 1.328125,0.8125 1.328125,1.625 C 3.5625,-3.90625 3.078125,-3.125 2.515625,-2.5 l -1.90625,2.125 C 0.5,-0.265625 0.5,-0.234375 0.5,0 H 4.203125 L 4.46875,-1.734375 H 4.234375 C 4.171875,-1.4375 4.109375,-1 4,-0.84375 3.9375,-0.765625 3.28125,-0.765625 3.0625,-0.765625 Z m 0,0"
               id="path93" />
          </g>
        </g>
      </g>
      <g
         inkscape:label=""
         transform="translate(68.017159,26.447901)"
         id="g109">
        <g
           fill="#000000"
           fill-opacity="1"
           id="g97"
           transform="matrix(0.352778,0,0,0.352778,-0.962157,-0.840581)">
          <g
             id="g96"
             transform="translate(1.993,2.789)">
            <path
               d="m 3.875,8.515625 -1.75,-3.875 C 2.046875,4.484375 2,4.484375 1.96875,4.484375 c 0,0 -0.0625,0 -0.171875,0.078125 l -0.9375,0.71875 c -0.125,0.109375 -0.125,0.125 -0.125,0.15625 0,0.0625 0.015625,0.109375 0.09375,0.109375 0.0625,0 0.234375,-0.140625 0.34375,-0.21875 C 1.21875,5.28125 1.375,5.171875 1.484375,5.09375 l 1.96875,4.3125 C 3.515625,9.5625 3.5625,9.5625 3.65625,9.5625 c 0.15625,0 0.1875,-0.046875 0.25,-0.1875 L 8.4375,0 C 8.5,-0.140625 8.5,-0.171875 8.5,-0.203125 8.5,-0.296875 8.421875,-0.40625 8.296875,-0.40625 c -0.078125,0 -0.140625,0.0625 -0.21875,0.21875 z m 0,0"
               id="path95" />
          </g>
        </g>
        <path
           fill="none"
           stroke-width="0.398"
           stroke-linecap="butt"
           stroke-linejoin="miter"
           stroke="#000000"
           stroke-opacity="1"
           stroke-miterlimit="10"
           d="m 7.5695,0.20709372 h 4.980469"
           id="path97"
           transform="scale(0.352778)" />
        <g
           fill="#000000"
           fill-opacity="1"
           id="g99"
           transform="matrix(0.352778,0,0,0.352778,-0.962157,-0.840581)">
          <g
             id="g98"
             transform="translate(10.295,11.031)">
            <path
               d="m 2.890625,-3.515625 c 0.8125,-0.265625 1.390625,-0.953125 1.390625,-1.75 0,-0.8125 -0.875,-1.375 -1.828125,-1.375 -1,0 -1.765625,0.59375 -1.765625,1.359375 0,0.328125 0.21875,0.515625 0.515625,0.515625 0.296875,0 0.5,-0.21875 0.5,-0.515625 0,-0.484375 -0.46875,-0.484375 -0.609375,-0.484375 0.296875,-0.5 0.953125,-0.625 1.3125,-0.625 0.421875,0 0.96875,0.21875 0.96875,1.109375 0,0.125 -0.03125,0.703125 -0.28125,1.140625 C 2.796875,-3.65625 2.453125,-3.625 2.203125,-3.625 2.125,-3.609375 1.890625,-3.59375 1.8125,-3.59375 c -0.078125,0.015625 -0.140625,0.03125 -0.140625,0.125 0,0.109375 0.0625,0.109375 0.234375,0.109375 h 0.4375 c 0.8125,0 1.1875,0.671875 1.1875,1.65625 0,1.359375 -0.6875,1.640625 -1.125,1.640625 -0.4375,0 -1.1875,-0.171875 -1.53125,-0.75 0.34375,0.046875 0.65625,-0.171875 0.65625,-0.546875 0,-0.359375 -0.265625,-0.5625 -0.546875,-0.5625 -0.25,0 -0.5625,0.140625 -0.5625,0.578125 0,0.90625 0.921875,1.5625 2.015625,1.5625 1.21875,0 2.125,-0.90625 2.125,-1.921875 0,-0.8125 -0.640625,-1.59375 -1.671875,-1.8125 z m 0,0"
               id="path98" />
          </g>
        </g>
        <g
           fill="#000000"
           fill-opacity="1"
           id="g102"
           transform="matrix(0.352778,0,0,0.352778,-0.962157,-0.840581)">
          <g
             id="g100"
             transform="translate(18.042999,11.031)">
            <path
               d="M 0.953125,-2.296875 C 1,-2.296875 1.21875,-2.296875 1.21875,-2.5 1.21875,-2.6875 1,-2.6875 0.953125,-2.6875 V -4 c 0,-0.15625 0,-0.34375 -0.203125,-0.34375 -0.203125,0 -0.203125,0.1875 -0.203125,0.34375 v 3.015625 c 0,0.15625 0,0.34375 0.203125,0.34375 0.203125,0 0.203125,-0.1875 0.203125,-0.34375 z m 0,0"
               id="path99" />
          </g>
          <g
             id="g101"
             transform="translate(18.042999,11.031)">
            <path
               d="M 8.3125,-2.296875 C 7.765625,-1.875 7.5,-1.46875 7.421875,-1.328125 c -0.453125,0.6875 -0.53125,1.3125 -0.53125,1.3125 0,0.125 0.125,0.125 0.203125,0.125 C 7.25,0.109375 7.265625,0.09375 7.3125,-0.09375 7.53125,-1.0625 8.125,-1.90625 9.25,-2.359375 9.375,-2.40625 9.40625,-2.421875 9.40625,-2.5 c 0,-0.0625 -0.0625,-0.09375 -0.078125,-0.109375 C 8.875,-2.765625 7.671875,-3.265625 7.296875,-4.9375 7.265625,-5.0625 7.25,-5.09375 7.09375,-5.09375 c -0.078125,0 -0.203125,0 -0.203125,0.125 0,0.015625 0.09375,0.640625 0.5,1.3125 0.203125,0.296875 0.5,0.640625 0.921875,0.96875 H 0.90625 c -0.171875,0 -0.359375,0 -0.359375,0.1875 0,0.203125 0.1875,0.203125 0.359375,0.203125 z m 0,0"
               id="path100" />
          </g>
        </g>
        <g
           fill="#000000"
           fill-opacity="1"
           id="g104"
           transform="matrix(0.352778,0,0,0.352778,-0.962157,-0.840581)">
          <g
             id="g103"
             transform="translate(30.775204,11.031)">
            <path
               d="M 4.078125,-3.125 H 6.84375 c 0.171875,0 0.359375,0 0.359375,-0.1875 0,-0.203125 -0.1875,-0.203125 -0.359375,-0.203125 H 4.078125 v -2.75 c 0,-0.171875 0,-0.375 -0.203125,-0.375 -0.203125,0 -0.203125,0.1875 -0.203125,0.34375 v 2.78125 h -2.78125 c -0.15625,0 -0.34375,0 -0.34375,0.203125 0,0.1875 0.1875,0.1875 0.34375,0.1875 h 2.78125 v 2.71875 h -2.78125 c -0.15625,0 -0.34375,0 -0.34375,0.203125 C 0.546875,0 0.734375,0 0.890625,0 H 6.84375 c 0.171875,0 0.359375,0 0.359375,-0.203125 0,-0.203125 -0.1875,-0.203125 -0.359375,-0.203125 H 4.078125 Z m 0,0"
               id="path102" />
          </g>
        </g>
        <g
           fill="#000000"
           fill-opacity="1"
           id="g106"
           transform="matrix(0.352778,0,0,0.352778,-0.962157,-0.840581)">
          <g
             id="g105"
             transform="translate(38.521999,2.789)">
            <path
               d="m 3.875,8.515625 -1.75,-3.875 C 2.046875,4.484375 2,4.484375 1.96875,4.484375 c 0,0 -0.0625,0 -0.171875,0.078125 l -0.9375,0.71875 c -0.125,0.109375 -0.125,0.125 -0.125,0.15625 0,0.0625 0.015625,0.109375 0.09375,0.109375 0.0625,0 0.234375,-0.140625 0.34375,-0.21875 C 1.21875,5.28125 1.375,5.171875 1.484375,5.09375 l 1.96875,4.3125 C 3.515625,9.5625 3.5625,9.5625 3.65625,9.5625 c 0.15625,0 0.1875,-0.046875 0.25,-0.1875 L 8.4375,0 C 8.5,-0.140625 8.5,-0.171875 8.5,-0.203125 8.5,-0.296875 8.421875,-0.40625 8.296875,-0.40625 c -0.078125,0 -0.140625,0.0625 -0.21875,0.21875 z m 0,0"
               id="path104" />
          </g>
        </g>
        <path
           fill="none"
           stroke-width="0.398"
           stroke-linecap="butt"
           stroke-linejoin="miter"
           stroke="#000000"
           stroke-opacity="1"
           stroke-miterlimit="10"
           d="m 44.096844,0.20709372 h 4.980469"
           id="path106"
           transform="scale(0.352778)" />
        <g
           fill="#000000"
           fill-opacity="1"
           id="g108"
           transform="matrix(0.352778,0,0,0.352778,-0.962157,-0.840581)">
          <g
             id="g107"
             transform="translate(46.824001,11.031)">
            <path
               d="m 2.890625,-3.515625 c 0.8125,-0.265625 1.390625,-0.953125 1.390625,-1.75 0,-0.8125 -0.875,-1.375 -1.828125,-1.375 -1,0 -1.765625,0.59375 -1.765625,1.359375 0,0.328125 0.21875,0.515625 0.515625,0.515625 0.296875,0 0.5,-0.21875 0.5,-0.515625 0,-0.484375 -0.46875,-0.484375 -0.609375,-0.484375 0.296875,-0.5 0.953125,-0.625 1.3125,-0.625 0.421875,0 0.96875,0.21875 0.96875,1.109375 0,0.125 -0.03125,0.703125 -0.28125,1.140625 C 2.796875,-3.65625 2.453125,-3.625 2.203125,-3.625 2.125,-3.609375 1.890625,-3.59375 1.8125,-3.59375 c -0.078125,0.015625 -0.140625,0.03125 -0.140625,0.125 0,0.109375 0.0625,0.109375 0.234375,0.109375 h 0.4375 c 0.8125,0 1.1875,0.671875 1.1875,1.65625 0,1.359375 -0.6875,1.640625 -1.125,1.640625 -0.4375,0 -1.1875,-0.171875 -1.53125,-0.75 0.34375,0.046875 0.65625,-0.171875 0.65625,-0.546875 0,-0.359375 -0.265625,-0.5625 -0.546875,-0.5625 -0.25,0 -0.5625,0.140625 -0.5625,0.578125 0,0.90625 0.921875,1.5625 2.015625,1.5625 1.21875,0 2.125,-0.90625 2.125,-1.921875 0,-0.8125 -0.640625,-1.59375 -1.671875,-1.8125 z m 0,0"
               id="path107" />
          </g>
        </g>
      </g>
    </g>
    <path
       style="fill:none;stroke:#000000;stroke-width:0.264999;stroke-dasharray:none;marker-end:url(#Triangle)"
       d="M 29.885632,11.766011 16.472535,24.668084"
       id="path113" />
    <path
       style="fill:none;stroke:#000000;stroke-width:0.245629;stroke-dasharray:none;marker-end:url(#marker115)"
       d="M 34.21563,11.678127 V 24.335043"
       id="path114" />
    <path
       style="fill:none;stroke:#000000;stroke-width:0.264999;stroke-dasharray:none;marker-end:url(#marker117)"
       d="M 36.842975,11.303241 52.628469,25.000185"
       id="path116" />
    <path
       style="fill:none;stroke:#000000;stroke-width:0.264999;stroke-dasharray:none;marker-end:url(#marker119)"
       d="m 15.01834,35.516034 10.150337,8.224477"
       id="path118" />
    <path
       style="fill:none;stroke:#000000;stroke-width:0.264999;stroke-dasharray:none;marker-end:url(#marker121)"
       d="m 34.002966,35.453645 v 8.349578"
       id="path120" />
    <path
       style="fill:none;stroke:#000000;stroke-width:0.264999;stroke-dasharray:none;marker-end:url(#marker123)"
       d="m 52.298295,35.818598 -9.231511,8.036991"
       id="path122" />
    <g
       inkscape:label=""
       transform="translate(93.322402,7.0034047)"
       id="g137">
      <g
         fill="#000000"
         fill-opacity="1"
         id="g126"
         transform="matrix(0.352778,0,0,0.352778,-0.818841,-0.840934)">
        <g
           id="g125"
           transform="translate(1.993,11.031)">
          <path
             d="m 4.765625,0.09375 c 1.40625,-0.296875 2.65625,-1.40625 2.65625,-3.5 0,-2.515625 -1.765625,-3.609375 -3.546875,-3.609375 -1.828125,0 -3.546875,1.140625 -3.546875,3.59375 0,2.140625 1.28125,3.15625 2.453125,3.46875 0.453125,1.015625 1.4375,1.734375 2.671875,1.734375 0.5,0 1.046875,-0.09375 1.5625,-0.296875 0.1875,-0.0625 0.28125,-0.109375 0.28125,-0.234375 0,-0.109375 -0.09375,-0.171875 -0.171875,-0.171875 -0.015625,0 -0.03125,0 -0.09375,0.015625 C 6.75,1.171875 6.640625,1.171875 6.484375,1.171875 5.5625,1.171875 5,0.59375 4.765625,0.09375 Z M 2.5,-6.390625 c -0.609375,0.703125 -0.765625,1.875 -0.765625,2.96875 0,0.984375 0.125,2.21875 0.78125,3 -0.6875,-0.25 -1.84375,-1.046875 -1.84375,-2.984375 0,-2.03125 1.234375,-2.78125 1.828125,-3 z M 5.265625,-6.40625 c 0.671875,0.25 1.8125,1.046875 1.8125,2.984375 0,2.03125 -1.234375,2.78125 -1.828125,3 C 5.859375,-1.140625 6.015625,-2.3125 6.015625,-3.40625 6.015625,-4.390625 5.90625,-5.625 5.25,-6.390625 Z m -1.390625,6.25 c -1.609375,0 -1.796875,-2.109375 -1.796875,-3.25 0,-1.203125 0.203125,-3.265625 1.796875,-3.265625 1.625,0 1.796875,2.109375 1.796875,3.25 0,1.203125 -0.203125,3.265625 -1.796875,3.265625 z M 3.21875,0.140625 C 3.5,0.1875 3.875,0.1875 3.875,0.1875 c 0.046875,0 0.265625,0 0.546875,-0.03125 C 4.6875,0.78125 5.15625,1.171875 5.65625,1.359375 5.75,1.40625 5.765625,1.40625 5.765625,1.421875 c 0,0.015625 -0.1875,0.015625 -0.3125,0.015625 -0.84375,0 -1.71875,-0.40625 -2.234375,-1.296875 z m 0,0"
             id="path124" />
        </g>
      </g>
      <g
         fill="#000000"
         fill-opacity="1"
         id="g128"
         transform="matrix(0.352778,0,0,0.352778,-0.818841,-0.840934)">
        <g
           id="g127"
           transform="translate(9.7410002,11.031)">
          <path
             d="m 3.296875,2.390625 c 0,-0.03125 0,-0.046875 -0.171875,-0.21875 C 1.890625,0.921875 1.5625,-0.96875 1.5625,-2.5 c 0,-1.734375 0.375,-3.46875 1.609375,-4.703125 0.125,-0.125 0.125,-0.140625 0.125,-0.171875 0,-0.078125 -0.03125,-0.109375 -0.09375,-0.109375 -0.109375,0 -1,0.6875 -1.59375,1.953125 -0.5,1.09375 -0.625,2.203125 -0.625,3.03125 0,0.78125 0.109375,1.984375 0.65625,3.125 C 2.25,1.84375 3.09375,2.5 3.203125,2.5 c 0.0625,0 0.09375,-0.03125 0.09375,-0.109375 z m 0,0"
             id="path126" />
        </g>
      </g>
      <g
         fill="#000000"
         fill-opacity="1"
         id="g130"
         transform="matrix(0.352778,0,0,0.352778,-0.818841,-0.840934)">
        <g
           id="g129"
           transform="translate(13.616,2.79)">
          <path
             d="m 3.875,8.515625 -1.75,-3.875 C 2.046875,4.484375 2,4.484375 1.96875,4.484375 c 0,0 -0.0625,0 -0.171875,0.078125 l -0.9375,0.71875 c -0.125,0.109375 -0.125,0.125 -0.125,0.15625 0,0.0625 0.015625,0.109375 0.09375,0.109375 0.0625,0 0.234375,-0.140625 0.34375,-0.21875 C 1.21875,5.28125 1.375,5.171875 1.484375,5.09375 l 1.96875,4.3125 C 3.515625,9.5625 3.5625,9.5625 3.65625,9.5625 c 0.15625,0 0.1875,-0.046875 0.25,-0.1875 L 8.4375,0 C 8.5,-0.140625 8.5,-0.171875 8.5,-0.203125 8.5,-0.296875 8.421875,-0.40625 8.296875,-0.40625 c -0.078125,0 -0.140625,0.0625 -0.21875,0.21875 z m 0,0"
             id="path128" />
        </g>
      </g>
      <path
         fill="none"
         stroke-width="0.398"
         stroke-linecap="butt"
         stroke-linejoin="miter"
         stroke="#000000"
         stroke-opacity="1"
         stroke-miterlimit="10"
         d="m 19.596844,0.20609379 h 4.980469"
         id="path130"
         transform="scale(0.352778)" />
      <g
         fill="#000000"
         fill-opacity="1"
         id="g132"
         transform="matrix(0.352778,0,0,0.352778,-0.818841,-0.840934)">
        <g
           id="g131"
           transform="translate(21.917999,11.031)">
          <path
             d="m 1.265625,-0.765625 1.0625,-1.03125 c 1.546875,-1.375 2.140625,-1.90625 2.140625,-2.90625 0,-1.140625 -0.890625,-1.9375 -2.109375,-1.9375 -1.125,0 -1.859375,0.921875 -1.859375,1.8125 0,0.546875 0.5,0.546875 0.53125,0.546875 0.171875,0 0.515625,-0.109375 0.515625,-0.53125 0,-0.25 -0.1875,-0.515625 -0.53125,-0.515625 -0.078125,0 -0.09375,0 -0.125,0.015625 0.21875,-0.65625 0.765625,-1.015625 1.34375,-1.015625 0.90625,0 1.328125,0.8125 1.328125,1.625 C 3.5625,-3.90625 3.078125,-3.125 2.515625,-2.5 l -1.90625,2.125 C 0.5,-0.265625 0.5,-0.234375 0.5,0 H 4.203125 L 4.46875,-1.734375 H 4.234375 C 4.171875,-1.4375 4.109375,-1 4,-0.84375 3.9375,-0.765625 3.28125,-0.765625 3.0625,-0.765625 Z m 0,0"
             id="path131" />
        </g>
      </g>
      <g
         fill="#000000"
         fill-opacity="1"
         id="g12"
         transform="matrix(0.352778,0,0,0.352778,-0.818841,-0.840934)">
        <g
           id="g133"
           transform="translate(26.899,11.031)">
          <path
             d="m 2.03125,-0.015625 c 0,-0.65625 -0.25,-1.046875 -0.640625,-1.046875 -0.328125,0 -0.53125,0.25 -0.53125,0.53125 C 0.859375,-0.265625 1.0625,0 1.390625,0 1.5,0 1.640625,-0.046875 1.734375,-0.125 1.765625,-0.15625 1.78125,-0.15625 1.78125,-0.15625 c 0.015625,0 0.015625,0 0.015625,0.140625 0,0.75 -0.34375,1.34375 -0.671875,1.671875 -0.109375,0.109375 -0.109375,0.125 -0.109375,0.15625 0,0.078125 0.046875,0.109375 0.09375,0.109375 0.109375,0 0.921875,-0.765625 0.921875,-1.9375 z m 0,0"
             id="path132" />
        </g>
      </g>
      <g
         fill="#000000"
         fill-opacity="1"
         id="g13"
         transform="matrix(0.352778,0,0,0.352778,-0.818841,-0.840934)">
        <g
           id="use12"
           transform="translate(31.327,2.79)">
          <path
             d="m 3.875,8.515625 -1.75,-3.875 C 2.046875,4.484375 2,4.484375 1.96875,4.484375 c 0,0 -0.0625,0 -0.171875,0.078125 l -0.9375,0.71875 c -0.125,0.109375 -0.125,0.125 -0.125,0.15625 0,0.0625 0.015625,0.109375 0.09375,0.109375 0.0625,0 0.234375,-0.140625 0.34375,-0.21875 C 1.21875,5.28125 1.375,5.171875 1.484375,5.09375 l 1.96875,4.3125 C 3.515625,9.5625 3.5625,9.5625 3.65625,9.5625 c 0.15625,0 0.1875,-0.046875 0.25,-0.1875 L 8.4375,0 C 8.5,-0.140625 8.5,-0.171875 8.5,-0.203125 8.5,-0.296875 8.421875,-0.40625 8.296875,-0.40625 c -0.078125,0 -0.140625,0.0625 -0.21875,0.21875 z m 0,0"
             id="path133" />
        </g>
      </g>
      <path
         fill="none"
         stroke-width="0.398"
         stroke-linecap="butt"
         stroke-linejoin="miter"
         stroke="#000000"
         stroke-opacity="1"
         stroke-miterlimit="10"
         d="M 37.307781,0.20609379 H 42.28825"
         id="path134"
         transform="scale(0.352778)" />
      <g
         fill="#000000"
         fill-opacity="1"
         id="g14"
         transform="matrix(0.352778,0,0,0.352778,-0.818841,-0.840934)">
        <g
           id="use13"
           transform="translate(39.629002,11.031)">
          <path
             d="m 2.890625,-3.515625 c 0.8125,-0.265625 1.390625,-0.953125 1.390625,-1.75 0,-0.8125 -0.875,-1.375 -1.828125,-1.375 -1,0 -1.765625,0.59375 -1.765625,1.359375 0,0.328125 0.21875,0.515625 0.515625,0.515625 0.296875,0 0.5,-0.21875 0.5,-0.515625 0,-0.484375 -0.46875,-0.484375 -0.609375,-0.484375 0.296875,-0.5 0.953125,-0.625 1.3125,-0.625 0.421875,0 0.96875,0.21875 0.96875,1.109375 0,0.125 -0.03125,0.703125 -0.28125,1.140625 C 2.796875,-3.65625 2.453125,-3.625 2.203125,-3.625 2.125,-3.609375 1.890625,-3.59375 1.8125,-3.59375 c -0.078125,0.015625 -0.140625,0.03125 -0.140625,0.125 0,0.109375 0.0625,0.109375 0.234375,0.109375 h 0.4375 c 0.8125,0 1.1875,0.671875 1.1875,1.65625 0,1.359375 -0.6875,1.640625 -1.125,1.640625 -0.4375,0 -1.1875,-0.171875 -1.53125,-0.75 0.34375,0.046875 0.65625,-0.171875 0.65625,-0.546875 0,-0.359375 -0.265625,-0.5625 -0.546875,-0.5625 -0.25,0 -0.5625,0.140625 -0.5625,0.578125 0,0.90625 0.921875,1.5625 2.015625,1.5625 1.21875,0 2.125,-0.90625 2.125,-1.921875 0,-0.8125 -0.640625,-1.59375 -1.671875,-1.8125 z m 0,0"
             id="path136" />
        </g>
        <g
           id="use14"
           transform="translate(44.610298,11.031)">
          <path
             d="m 2.875,-2.5 c 0,-0.765625 -0.109375,-1.96875 -0.65625,-3.109375 -0.59375,-1.21875 -1.453125,-1.875 -1.546875,-1.875 -0.0625,0 -0.109375,0.046875 -0.109375,0.109375 0,0.03125 0,0.046875 0.1875,0.234375 0.984375,0.984375 1.546875,2.5625 1.546875,4.640625 0,1.71875 -0.359375,3.46875 -1.59375,4.71875 C 0.5625,2.34375 0.5625,2.359375 0.5625,2.390625 0.5625,2.453125 0.609375,2.5 0.671875,2.5 0.765625,2.5 1.671875,1.8125 2.25,0.546875 2.765625,-0.546875 2.875,-1.65625 2.875,-2.5 Z m 0,0"
             id="path137" />
        </g>
      </g>
    </g>
    <g
       inkscape:label=""
       transform="translate(74.994354,29.193874)"
       id="g147">
      <g
         fill="#000000"
         fill-opacity="1"
         id="g139"
         transform="matrix(0.352778,0,0,0.352778,-0.818841,-0.840934)">
        <g
           id="g138"
           transform="translate(1.993,11.031)">
          <path
             d="m 4.765625,0.09375 c 1.40625,-0.296875 2.65625,-1.40625 2.65625,-3.5 0,-2.515625 -1.765625,-3.609375 -3.546875,-3.609375 -1.828125,0 -3.546875,1.140625 -3.546875,3.59375 0,2.140625 1.28125,3.15625 2.453125,3.46875 0.453125,1.015625 1.4375,1.734375 2.671875,1.734375 0.5,0 1.046875,-0.09375 1.5625,-0.296875 0.1875,-0.0625 0.28125,-0.109375 0.28125,-0.234375 0,-0.109375 -0.09375,-0.171875 -0.171875,-0.171875 -0.015625,0 -0.03125,0 -0.09375,0.015625 C 6.75,1.171875 6.640625,1.171875 6.484375,1.171875 5.5625,1.171875 5,0.59375 4.765625,0.09375 Z M 2.5,-6.390625 c -0.609375,0.703125 -0.765625,1.875 -0.765625,2.96875 0,0.984375 0.125,2.21875 0.78125,3 -0.6875,-0.25 -1.84375,-1.046875 -1.84375,-2.984375 0,-2.03125 1.234375,-2.78125 1.828125,-3 z M 5.265625,-6.40625 c 0.671875,0.25 1.8125,1.046875 1.8125,2.984375 0,2.03125 -1.234375,2.78125 -1.828125,3 C 5.859375,-1.140625 6.015625,-2.3125 6.015625,-3.40625 6.015625,-4.390625 5.90625,-5.625 5.25,-6.390625 Z m -1.390625,6.25 c -1.609375,0 -1.796875,-2.109375 -1.796875,-3.25 0,-1.203125 0.203125,-3.265625 1.796875,-3.265625 1.625,0 1.796875,2.109375 1.796875,3.25 0,1.203125 -0.203125,3.265625 -1.796875,3.265625 z M 3.21875,0.140625 C 3.5,0.1875 3.875,0.1875 3.875,0.1875 c 0.046875,0 0.265625,0 0.546875,-0.03125 C 4.6875,0.78125 5.15625,1.171875 5.65625,1.359375 5.75,1.40625 5.765625,1.40625 5.765625,1.421875 c 0,0.015625 -0.1875,0.015625 -0.3125,0.015625 -0.84375,0 -1.71875,-0.40625 -2.234375,-1.296875 z m 0,0"
             id="path138" />
        </g>
      </g>
      <g
         fill="#000000"
         fill-opacity="1"
         id="g141"
         transform="matrix(0.352778,0,0,0.352778,-0.818841,-0.840934)">
        <g
           id="g140"
           transform="translate(9.7410002,11.031)">
          <path
             d="m 3.296875,2.390625 c 0,-0.03125 0,-0.046875 -0.171875,-0.21875 C 1.890625,0.921875 1.5625,-0.96875 1.5625,-2.5 c 0,-1.734375 0.375,-3.46875 1.609375,-4.703125 0.125,-0.125 0.125,-0.140625 0.125,-0.171875 0,-0.078125 -0.03125,-0.109375 -0.09375,-0.109375 -0.109375,0 -1,0.6875 -1.59375,1.953125 -0.5,1.09375 -0.625,2.203125 -0.625,3.03125 0,0.78125 0.109375,1.984375 0.65625,3.125 C 2.25,1.84375 3.09375,2.5 3.203125,2.5 c 0.0625,0 0.09375,-0.03125 0.09375,-0.109375 z m 0,0"
             id="path139" />
        </g>
      </g>
      <g
         fill="#000000"
         fill-opacity="1"
         id="g143"
         transform="matrix(0.352778,0,0,0.352778,-0.818841,-0.840934)">
        <g
           id="g142"
           transform="translate(13.616,2.79)">
          <path
             d="m 3.875,8.515625 -1.75,-3.875 C 2.046875,4.484375 2,4.484375 1.96875,4.484375 c 0,0 -0.0625,0 -0.171875,0.078125 l -0.9375,0.71875 c -0.125,0.109375 -0.125,0.125 -0.125,0.15625 0,0.0625 0.015625,0.109375 0.09375,0.109375 0.0625,0 0.234375,-0.140625 0.34375,-0.21875 C 1.21875,5.28125 1.375,5.171875 1.484375,5.09375 l 1.96875,4.3125 C 3.515625,9.5625 3.5625,9.5625 3.65625,9.5625 c 0.15625,0 0.1875,-0.046875 0.25,-0.1875 L 8.4375,0 C 8.5,-0.140625 8.5,-0.171875 8.5,-0.203125 8.5,-0.296875 8.421875,-0.40625 8.296875,-0.40625 c -0.078125,0 -0.140625,0.0625 -0.21875,0.21875 z m 0,0"
             id="path141" />
        </g>
      </g>
      <path
         fill="none"
         stroke-width="0.398"
         stroke-linecap="butt"
         stroke-linejoin="miter"
         stroke="#000000"
         stroke-opacity="1"
         stroke-miterlimit="10"
         d="m 19.596844,0.20609379 h 4.980469"
         id="path143"
         transform="scale(0.352778)" />
      <g
         fill="#000000"
         fill-opacity="1"
         id="g146"
         transform="matrix(0.352778,0,0,0.352778,-0.818841,-0.840934)">
        <g
           id="g144"
           transform="translate(21.917999,11.031)">
          <path
             d="m 1.265625,-0.765625 1.0625,-1.03125 c 1.546875,-1.375 2.140625,-1.90625 2.140625,-2.90625 0,-1.140625 -0.890625,-1.9375 -2.109375,-1.9375 -1.125,0 -1.859375,0.921875 -1.859375,1.8125 0,0.546875 0.5,0.546875 0.53125,0.546875 0.171875,0 0.515625,-0.109375 0.515625,-0.53125 0,-0.25 -0.1875,-0.515625 -0.53125,-0.515625 -0.078125,0 -0.09375,0 -0.125,0.015625 0.21875,-0.65625 0.765625,-1.015625 1.34375,-1.015625 0.90625,0 1.328125,0.8125 1.328125,1.625 C 3.5625,-3.90625 3.078125,-3.125 2.515625,-2.5 l -1.90625,2.125 C 0.5,-0.265625 0.5,-0.234375 0.5,0 H 4.203125 L 4.46875,-1.734375 H 4.234375 C 4.171875,-1.4375 4.109375,-1 4,-0.84375 3.9375,-0.765625 3.28125,-0.765625 3.0625,-0.765625 Z m 0,0"
             id="path144" />
        </g>
        <g
           id="g145"
           transform="translate(26.8993,11.031)">
          <path
             d="m 2.875,-2.5 c 0,-0.765625 -0.109375,-1.96875 -0.65625,-3.109375 -0.59375,-1.21875 -1.453125,-1.875 -1.546875,-1.875 -0.0625,0 -0.109375,0.046875 -0.109375,0.109375 0,0.03125 0,0.046875 0.1875,0.234375 0.984375,0.984375 1.546875,2.5625 1.546875,4.640625 0,1.71875 -0.359375,3.46875 -1.59375,4.71875 C 0.5625,2.34375 0.5625,2.359375 0.5625,2.390625 0.5625,2.453125 0.609375,2.5 0.671875,2.5 0.765625,2.5 1.671875,1.8125 2.25,0.546875 2.765625,-0.546875 2.875,-1.65625 2.875,-2.5 Z m 0,0"
             id="path145" />
        </g>
      </g>
    </g>
    <g
       inkscape:label=""
       transform="translate(96.446427,29.193874)"
       id="g157">
      <g
         fill="#000000"
         fill-opacity="1"
         id="g149"
         transform="matrix(0.352778,0,0,0.352778,-0.818841,-0.840934)">
        <g
           id="g148"
           transform="translate(1.993,11.031)">
          <path
             d="m 4.765625,0.09375 c 1.40625,-0.296875 2.65625,-1.40625 2.65625,-3.5 0,-2.515625 -1.765625,-3.609375 -3.546875,-3.609375 -1.828125,0 -3.546875,1.140625 -3.546875,3.59375 0,2.140625 1.28125,3.15625 2.453125,3.46875 0.453125,1.015625 1.4375,1.734375 2.671875,1.734375 0.5,0 1.046875,-0.09375 1.5625,-0.296875 0.1875,-0.0625 0.28125,-0.109375 0.28125,-0.234375 0,-0.109375 -0.09375,-0.171875 -0.171875,-0.171875 -0.015625,0 -0.03125,0 -0.09375,0.015625 C 6.75,1.171875 6.640625,1.171875 6.484375,1.171875 5.5625,1.171875 5,0.59375 4.765625,0.09375 Z M 2.5,-6.390625 c -0.609375,0.703125 -0.765625,1.875 -0.765625,2.96875 0,0.984375 0.125,2.21875 0.78125,3 -0.6875,-0.25 -1.84375,-1.046875 -1.84375,-2.984375 0,-2.03125 1.234375,-2.78125 1.828125,-3 z M 5.265625,-6.40625 c 0.671875,0.25 1.8125,1.046875 1.8125,2.984375 0,2.03125 -1.234375,2.78125 -1.828125,3 C 5.859375,-1.140625 6.015625,-2.3125 6.015625,-3.40625 6.015625,-4.390625 5.90625,-5.625 5.25,-6.390625 Z m -1.390625,6.25 c -1.609375,0 -1.796875,-2.109375 -1.796875,-3.25 0,-1.203125 0.203125,-3.265625 1.796875,-3.265625 1.625,0 1.796875,2.109375 1.796875,3.25 0,1.203125 -0.203125,3.265625 -1.796875,3.265625 z M 3.21875,0.140625 C 3.5,0.1875 3.875,0.1875 3.875,0.1875 c 0.046875,0 0.265625,0 0.546875,-0.03125 C 4.6875,0.78125 5.15625,1.171875 5.65625,1.359375 5.75,1.40625 5.765625,1.40625 5.765625,1.421875 c 0,0.015625 -0.1875,0.015625 -0.3125,0.015625 -0.84375,0 -1.71875,-0.40625 -2.234375,-1.296875 z m 0,0"
             id="path147" />
        </g>
      </g>
      <g
         fill="#000000"
         fill-opacity="1"
         id="g151"
         transform="matrix(0.352778,0,0,0.352778,-0.818841,-0.840934)">
        <g
           id="g150"
           transform="translate(9.7410002,11.031)">
          <path
             d="m 3.296875,2.390625 c 0,-0.03125 0,-0.046875 -0.171875,-0.21875 C 1.890625,0.921875 1.5625,-0.96875 1.5625,-2.5 c 0,-1.734375 0.375,-3.46875 1.609375,-4.703125 0.125,-0.125 0.125,-0.140625 0.125,-0.171875 0,-0.078125 -0.03125,-0.109375 -0.09375,-0.109375 -0.109375,0 -1,0.6875 -1.59375,1.953125 -0.5,1.09375 -0.625,2.203125 -0.625,3.03125 0,0.78125 0.109375,1.984375 0.65625,3.125 C 2.25,1.84375 3.09375,2.5 3.203125,2.5 c 0.0625,0 0.09375,-0.03125 0.09375,-0.109375 z m 0,0"
             id="path149" />
        </g>
      </g>
      <g
         fill="#000000"
         fill-opacity="1"
         id="g153"
         transform="matrix(0.352778,0,0,0.352778,-0.818841,-0.840934)">
        <g
           id="g152"
           transform="translate(13.616,2.79)">
          <path
             d="m 3.875,8.515625 -1.75,-3.875 C 2.046875,4.484375 2,4.484375 1.96875,4.484375 c 0,0 -0.0625,0 -0.171875,0.078125 l -0.9375,0.71875 c -0.125,0.109375 -0.125,0.125 -0.125,0.15625 0,0.0625 0.015625,0.109375 0.09375,0.109375 0.0625,0 0.234375,-0.140625 0.34375,-0.21875 C 1.21875,5.28125 1.375,5.171875 1.484375,5.09375 l 1.96875,4.3125 C 3.515625,9.5625 3.5625,9.5625 3.65625,9.5625 c 0.15625,0 0.1875,-0.046875 0.25,-0.1875 L 8.4375,0 C 8.5,-0.140625 8.5,-0.171875 8.5,-0.203125 8.5,-0.296875 8.421875,-0.40625 8.296875,-0.40625 c -0.078125,0 -0.140625,0.0625 -0.21875,0.21875 z m 0,0"
             id="path151" />
        </g>
      </g>
      <path
         fill="none"
         stroke-width="0.398"
         stroke-linecap="butt"
         stroke-linejoin="miter"
         stroke="#000000"
         stroke-opacity="1"
         stroke-miterlimit="10"
         d="m 19.596844,0.20609379 h 4.980469"
         id="path153"
         transform="scale(0.352778)" />
      <g
         fill="#000000"
         fill-opacity="1"
         id="g156"
         transform="matrix(0.352778,0,0,0.352778,-0.818841,-0.840934)">
        <g
           id="g154"
           transform="translate(21.917999,11.031)">
          <path
             d="m 2.890625,-3.515625 c 0.8125,-0.265625 1.390625,-0.953125 1.390625,-1.75 0,-0.8125 -0.875,-1.375 -1.828125,-1.375 -1,0 -1.765625,0.59375 -1.765625,1.359375 0,0.328125 0.21875,0.515625 0.515625,0.515625 0.296875,0 0.5,-0.21875 0.5,-0.515625 0,-0.484375 -0.46875,-0.484375 -0.609375,-0.484375 0.296875,-0.5 0.953125,-0.625 1.3125,-0.625 0.421875,0 0.96875,0.21875 0.96875,1.109375 0,0.125 -0.03125,0.703125 -0.28125,1.140625 C 2.796875,-3.65625 2.453125,-3.625 2.203125,-3.625 2.125,-3.609375 1.890625,-3.59375 1.8125,-3.59375 c -0.078125,0.015625 -0.140625,0.03125 -0.140625,0.125 0,0.109375 0.0625,0.109375 0.234375,0.109375 h 0.4375 c 0.8125,0 1.1875,0.671875 1.1875,1.65625 0,1.359375 -0.6875,1.640625 -1.125,1.640625 -0.4375,0 -1.1875,-0.171875 -1.53125,-0.75 0.34375,0.046875 0.65625,-0.171875 0.65625,-0.546875 0,-0.359375 -0.265625,-0.5625 -0.546875,-0.5625 -0.25,0 -0.5625,0.140625 -0.5625,0.578125 0,0.90625 0.921875,1.5625 2.015625,1.5625 1.21875,0 2.125,-0.90625 2.125,-1.921875 0,-0.8125 -0.640625,-1.59375 -1.671875,-1.8125 z m 0,0"
             id="path154" />
        </g>
        <g
           id="g155"
           transform="translate(26.8993,11.031)">
          <path
             d="m 2.875,-2.5 c 0,-0.765625 -0.109375,-1.96875 -0.65625,-3.109375 -0.59375,-1.21875 -1.453125,-1.875 -1.546875,-1.875 -0.0625,0 -0.109375,0.046875 -0.109375,0.109375 0,0.03125 0,0.046875 0.1875,0.234375 0.984375,0.984375 1.546875,2.5625 1.546875,4.640625 0,1.71875 -0.359375,3.46875 -1.59375,4.71875 C 0.5625,2.34375 0.5625,2.359375 0.5625,2.390625 0.5625,2.453125 0.609375,2.5 0.671875,2.5 0.765625,2.5 1.671875,1.8125 2.25,0.546875 2.765625,-0.546875 2.875,-1.65625 2.875,-2.5 Z m 0,0"
             id="path155" />
        </g>
      </g>
    </g>
    <g
       inkscape:label=""
       transform="translate(117.8985,29.193874)"
       id="g167">
      <g
         fill="#000000"
         fill-opacity="1"
         id="g159"
         transform="matrix(0.352778,0,0,0.352778,-0.818841,-0.840934)">
        <g
           id="g158"
           transform="translate(1.993,11.031)">
          <path
             d="m 4.765625,0.09375 c 1.40625,-0.296875 2.65625,-1.40625 2.65625,-3.5 0,-2.515625 -1.765625,-3.609375 -3.546875,-3.609375 -1.828125,0 -3.546875,1.140625 -3.546875,3.59375 0,2.140625 1.28125,3.15625 2.453125,3.46875 0.453125,1.015625 1.4375,1.734375 2.671875,1.734375 0.5,0 1.046875,-0.09375 1.5625,-0.296875 0.1875,-0.0625 0.28125,-0.109375 0.28125,-0.234375 0,-0.109375 -0.09375,-0.171875 -0.171875,-0.171875 -0.015625,0 -0.03125,0 -0.09375,0.015625 C 6.75,1.171875 6.640625,1.171875 6.484375,1.171875 5.5625,1.171875 5,0.59375 4.765625,0.09375 Z M 2.5,-6.390625 c -0.609375,0.703125 -0.765625,1.875 -0.765625,2.96875 0,0.984375 0.125,2.21875 0.78125,3 -0.6875,-0.25 -1.84375,-1.046875 -1.84375,-2.984375 0,-2.03125 1.234375,-2.78125 1.828125,-3 z M 5.265625,-6.40625 c 0.671875,0.25 1.8125,1.046875 1.8125,2.984375 0,2.03125 -1.234375,2.78125 -1.828125,3 C 5.859375,-1.140625 6.015625,-2.3125 6.015625,-3.40625 6.015625,-4.390625 5.90625,-5.625 5.25,-6.390625 Z m -1.390625,6.25 c -1.609375,0 -1.796875,-2.109375 -1.796875,-3.25 0,-1.203125 0.203125,-3.265625 1.796875,-3.265625 1.625,0 1.796875,2.109375 1.796875,3.25 0,1.203125 -0.203125,3.265625 -1.796875,3.265625 z M 3.21875,0.140625 C 3.5,0.1875 3.875,0.1875 3.875,0.1875 c 0.046875,0 0.265625,0 0.546875,-0.03125 C 4.6875,0.78125 5.15625,1.171875 5.65625,1.359375 5.75,1.40625 5.765625,1.40625 5.765625,1.421875 c 0,0.015625 -0.1875,0.015625 -0.3125,0.015625 -0.84375,0 -1.71875,-0.40625 -2.234375,-1.296875 z m 0,0"
             id="path157" />
        </g>
      </g>
      <g
         fill="#000000"
         fill-opacity="1"
         id="g161"
         transform="matrix(0.352778,0,0,0.352778,-0.818841,-0.840934)">
        <g
           id="g160"
           transform="translate(9.7410002,11.031)">
          <path
             d="m 3.296875,2.390625 c 0,-0.03125 0,-0.046875 -0.171875,-0.21875 C 1.890625,0.921875 1.5625,-0.96875 1.5625,-2.5 c 0,-1.734375 0.375,-3.46875 1.609375,-4.703125 0.125,-0.125 0.125,-0.140625 0.125,-0.171875 0,-0.078125 -0.03125,-0.109375 -0.09375,-0.109375 -0.109375,0 -1,0.6875 -1.59375,1.953125 -0.5,1.09375 -0.625,2.203125 -0.625,3.03125 0,0.78125 0.109375,1.984375 0.65625,3.125 C 2.25,1.84375 3.09375,2.5 3.203125,2.5 c 0.0625,0 0.09375,-0.03125 0.09375,-0.109375 z m 0,0"
             id="path159" />
        </g>
      </g>
      <g
         fill="#000000"
         fill-opacity="1"
         id="g163"
         transform="matrix(0.352778,0,0,0.352778,-0.818841,-0.840934)">
        <g
           id="g162"
           transform="translate(13.616,2.79)">
          <path
             d="m 3.875,8.515625 -1.75,-3.875 C 2.046875,4.484375 2,4.484375 1.96875,4.484375 c 0,0 -0.0625,0 -0.171875,0.078125 l -0.9375,0.71875 c -0.125,0.109375 -0.125,0.125 -0.125,0.15625 0,0.0625 0.015625,0.109375 0.09375,0.109375 0.0625,0 0.234375,-0.140625 0.34375,-0.21875 C 1.21875,5.28125 1.375,5.171875 1.484375,5.09375 l 1.96875,4.3125 C 3.515625,9.5625 3.5625,9.5625 3.65625,9.5625 c 0.15625,0 0.1875,-0.046875 0.25,-0.1875 L 8.4375,0 C 8.5,-0.140625 8.5,-0.171875 8.5,-0.203125 8.5,-0.296875 8.421875,-0.40625 8.296875,-0.40625 c -0.078125,0 -0.140625,0.0625 -0.21875,0.21875 z m 0,0"
             id="path161" />
        </g>
      </g>
      <path
         fill="none"
         stroke-width="0.398"
         stroke-linecap="butt"
         stroke-linejoin="miter"
         stroke="#000000"
         stroke-opacity="1"
         stroke-miterlimit="10"
         d="m 19.596844,0.20609379 h 4.980469"
         id="path163"
         transform="scale(0.352778)" />
      <g
         fill="#000000"
         fill-opacity="1"
         id="g166"
         transform="matrix(0.352778,0,0,0.352778,-0.818841,-0.840934)">
        <g
           id="g164"
           transform="translate(21.917999,11.031)">
          <path
             d="m 1.3125,-3.265625 v -0.25 c 0,-2.515625 1.234375,-2.875 1.75,-2.875 0.234375,0 0.65625,0.0625 0.875,0.40625 -0.15625,0 -0.546875,0 -0.546875,0.4375 0,0.3125 0.234375,0.46875 0.453125,0.46875 0.15625,0 0.46875,-0.09375 0.46875,-0.484375 0,-0.59375 -0.4375,-1.078125 -1.265625,-1.078125 -1.28125,0 -2.625,1.28125 -2.625,3.484375 0,2.671875 1.15625,3.375 2.078125,3.375 1.109375,0 2.0625,-0.9375 2.0625,-2.25 0,-1.265625 -0.890625,-2.21875 -2,-2.21875 -0.671875,0 -1.046875,0.5 -1.25,0.984375 z M 2.5,-0.0625 c -0.625,0 -0.921875,-0.59375 -0.984375,-0.75 -0.1875,-0.46875 -0.1875,-1.265625 -0.1875,-1.4375 0,-0.78125 0.328125,-1.78125 1.21875,-1.78125 0.171875,0 0.625,0 0.9375,0.625 0.171875,0.359375 0.171875,0.875 0.171875,1.359375 0,0.484375 0,0.984375 -0.171875,1.34375 C 3.1875,-0.109375 2.734375,-0.0625 2.5,-0.0625 Z m 0,0"
             id="path164" />
        </g>
        <g
           id="g165"
           transform="translate(26.8993,11.031)">
          <path
             d="m 2.875,-2.5 c 0,-0.765625 -0.109375,-1.96875 -0.65625,-3.109375 -0.59375,-1.21875 -1.453125,-1.875 -1.546875,-1.875 -0.0625,0 -0.109375,0.046875 -0.109375,0.109375 0,0.03125 0,0.046875 0.1875,0.234375 0.984375,0.984375 1.546875,2.5625 1.546875,4.640625 0,1.71875 -0.359375,3.46875 -1.59375,4.71875 C 0.5625,2.34375 0.5625,2.359375 0.5625,2.390625 0.5625,2.453125 0.609375,2.5 0.671875,2.5 0.765625,2.5 1.671875,1.8125 2.25,0.546875 2.765625,-0.546875 2.875,-1.65625 2.875,-2.5 Z m 0,0"
             id="path165" />
        </g>
      </g>
    </g>
    <g
       inkscape:label=""
       transform="translate(100.03761,46.236424)"
       id="g169">
      <g
         fill="#000000"
         fill-opacity="1"
         id="g168"
         transform="matrix(0.352778,0,0,0.352778,-0.818841,-0.649243)">
        <g
           id="use1"
           transform="translate(1.993,8.8559999)">
          <path
             d="m 4.765625,0.09375 c 1.40625,-0.296875 2.65625,-1.40625 2.65625,-3.5 0,-2.515625 -1.765625,-3.609375 -3.546875,-3.609375 -1.828125,0 -3.546875,1.140625 -3.546875,3.59375 0,2.140625 1.28125,3.15625 2.453125,3.46875 0.453125,1.015625 1.4375,1.734375 2.671875,1.734375 0.5,0 1.046875,-0.09375 1.5625,-0.296875 0.1875,-0.0625 0.28125,-0.109375 0.28125,-0.234375 0,-0.109375 -0.09375,-0.171875 -0.171875,-0.171875 -0.015625,0 -0.03125,0 -0.09375,0.015625 C 6.75,1.171875 6.640625,1.171875 6.484375,1.171875 5.5625,1.171875 5,0.59375 4.765625,0.09375 Z M 2.5,-6.390625 c -0.609375,0.703125 -0.765625,1.875 -0.765625,2.96875 0,0.984375 0.125,2.21875 0.78125,3 -0.6875,-0.25 -1.84375,-1.046875 -1.84375,-2.984375 0,-2.03125 1.234375,-2.78125 1.828125,-3 z M 5.265625,-6.40625 c 0.671875,0.25 1.8125,1.046875 1.8125,2.984375 0,2.03125 -1.234375,2.78125 -1.828125,3 C 5.859375,-1.140625 6.015625,-2.3125 6.015625,-3.40625 6.015625,-4.390625 5.90625,-5.625 5.25,-6.390625 Z m -1.390625,6.25 c -1.609375,0 -1.796875,-2.109375 -1.796875,-3.25 0,-1.203125 0.203125,-3.265625 1.796875,-3.265625 1.625,0 1.796875,2.109375 1.796875,3.25 0,1.203125 -0.203125,3.265625 -1.796875,3.265625 z M 3.21875,0.140625 C 3.5,0.1875 3.875,0.1875 3.875,0.1875 c 0.046875,0 0.265625,0 0.546875,-0.03125 C 4.6875,0.78125 5.15625,1.171875 5.65625,1.359375 5.75,1.40625 5.765625,1.40625 5.765625,1.421875 c 0,0.015625 -0.1875,0.015625 -0.3125,0.015625 -0.84375,0 -1.71875,-0.40625 -2.234375,-1.296875 z m 0,0"
             id="path2" />
        </g>
      </g>
    </g>
    <path
       style="fill:none;stroke:#000000;stroke-width:0.264999;stroke-dasharray:none;marker-end:url(#marker180)"
       d="M 99.201167,45.928549 84.849937,34.205455"
       id="path179" />
    <path
       style="fill:none;stroke:#000000;stroke-width:0.264999;stroke-dasharray:none;marker-end:url(#marker182)"
       d="M 101.51428,45.222805 V 34.793015"
       id="path181" />
    <path
       style="fill:none;stroke:#000000;stroke-width:0.264999;stroke-dasharray:none;marker-end:url(#marker184)"
       d="M 103.83484,46.278501 118.23943,34.461156"
       id="path183" />
    <path
       style="fill:none;stroke:#000000;stroke-width:0.264999;stroke-dasharray:none;marker-end:url(#marker186)"
       d="M 83.941865,27.942987 96.980547,13.192635"
       id="path185" />
    <path
       style="fill:none;stroke:#000000;stroke-width:0.264999;stroke-dasharray:none;marker-end:url(#marker188)"
       d="M 100.99901,27.882628 V 13.562125"
       id="path187" />
    <path
       style="fill:none;stroke:#000000;stroke-width:0.264999;stroke-dasharray:none;marker-end:url(#marker190)"
       d="M 120.02806,27.720943 106.32637,13.108126"
       id="path189" />
  </g>
</svg>
